<svg width="54cm" height="31cm" viewBox="4 6 54 31"><rect style="fill:#fff" width="6.5" height="2.2" x="23.582" y="6.2"/><rect style="fill:none;fill-opacity:0;stroke-width:.1;stroke:#000" width="6.5" height="2.2" x="23.582" y="6.2"/><text style="fill:#000;text-anchor:middle;font-size:.8;font-family:monospace;font-style:normal;font-weight:400" x="26.832" y="6.85">&lt;&lt;interface&gt;&gt;</text><text style="fill:#000;text-anchor:middle;font-size:1;font-family:sans;font-style:normal;font-weight:700" x="26.832" y="7.85">GdaDataModel</text><rect style="fill:#fff" width="8.164" height="1.4" x="22.75" y="11.75"/><rect style="fill:none;fill-opacity:0;stroke-width:.1;stroke:#000" width="8.164" height="1.4" x="22.75" y="11.75"/><text style="fill:#000;text-anchor:middle;font-size:1;font-family:sans;font-style:italic;font-weight:700" x="26.832" y="12.75">GdaDataModelRow</text><rect style="fill:#fff" width="8.7" height="1.4" x="17.65" y="18.05"/><rect style="fill:none;fill-opacity:0;stroke-width:.1;stroke:#000" width="8.7" height="1.4" x="17.65" y="18.05"/><text style="fill:#000;text-anchor:middle;font-size:1;font-family:sans;font-style:normal;font-weight:700" x="22" y="19.05">GdaDataModelArray</text><polyline style="fill:none;fill-opacity:0;stroke-width:.1;stroke-dasharray:.4;stroke:#000" points="26.832 9.312 26.832 11.7 26.832 11.7"/><polygon style="fill:#fff" points="27.232 9.312 26.832 8.512 26.432 9.312"/><polygon style="fill:none;fill-opacity:0;stroke-width:.1;stroke:#000" points="27.232 9.312 26.832 8.512 26.432 9.312"/><polyline style="fill:none;fill-opacity:0;stroke-width:.1;stroke:#000" points="26.832 14.062 26.832 15.6 22 15.6 22 18.05"/><polygon style="fill:#fff" points="27.232 14.062 26.832 13.262 26.432 14.062"/><polygon style="fill:none;fill-opacity:0;stroke-width:.1;stroke:#000" points="27.232 14.062 26.832 13.262 26.432 14.062"/><rect style="fill:#fff" width="8.5" height="1.4" x="27.37" y="18.05"/><rect style="fill:none;fill-opacity:0;stroke-width:.1;stroke:#000" width="8.5" height="1.4" x="27.37" y="18.05"/><text style="fill:#000;text-anchor:middle;font-size:1;font-family:sans;font-style:normal;font-weight:700" x="31.62" y="19.05">GdaDataModelHash</text><polyline style="fill:none;fill-opacity:0;stroke-width:.1;stroke:#000" points="26.832 14.062 26.832 15.6 31.62 15.6 31.62 18.05"/><polygon style="fill:#fff" points="27.232 14.062 26.832 13.262 26.432 14.062"/><polygon style="fill:none;fill-opacity:0;stroke-width:.1;stroke:#000" points="27.232 14.062 26.832 13.262 26.432 14.062"/><polygon style="fill:#fff" points="17.45 22.45 25.8 22.45 26.4 23.05 26.4 24.95 17.45 24.95"/><polygon style="fill:none;fill-opacity:0;stroke-width:.1;stroke:#000" points="17.45 22.45 25.8 22.45 26.4 23.05 26.4 24.95 17.45 24.95"/><polyline style="fill:none;fill-opacity:0;stroke-width:.05;stroke:#000" points="25.8 22.45 25.8 23.05 26.4 23.05"/><text style="fill:#000;text-anchor:start;font-size:.8;font-family:monospace;font-style:normal;font-weight:400" x="17.8" y="23.65">Data is stored as rows</text><text style="fill:#000;text-anchor:start;font-size:.8;font-family:monospace;font-style:normal;font-weight:400" x="17.8" y="24.45">in an array (GPtrArray)</text><rect style="fill:#fff" width="8.9" height="1.4" x="6.32" y="11.75"/><rect style="fill:none;fill-opacity:0;stroke-width:.1;stroke:#000" width="8.9" height="1.4" x="6.32" y="11.75"/><text style="fill:#000;text-anchor:middle;font-size:1;font-family:sans;font-style:normal;font-weight:700" x="10.77" y="12.75">GdaDataModelQuery</text><rect style="fill:#fff" width="8.9" height="3.4" x="6.32" y="13.15"/><rect style="fill:none;fill-opacity:0;stroke-width:.1;stroke:#000" width="8.9" height="3.4" x="6.32" y="13.15"/><text style="fill:#000;text-anchor:start;font-size:.8;font-family:monospace;font-style:normal;font-weight:400" x="6.47" y="14.05">+SELECT query</text><text style="fill:#000;text-anchor:start;font-size:.8;font-family:monospace;font-style:normal;font-weight:400" x="6.47" y="14.85">+INSERT query</text><text style="fill:#000;text-anchor:start;font-size:.8;font-family:monospace;font-style:normal;font-weight:400" x="6.47" y="15.65">+UPDATE query</text><text style="fill:#000;text-anchor:start;font-size:.8;font-family:monospace;font-style:normal;font-weight:400" x="6.47" y="16.45">+DELETE query</text><polygon style="fill:#fff" points="27.47 22.5 37.57 22.5 38.17 23.1 38.17 25 27.47 25"/><polygon style="fill:none;fill-opacity:0;stroke-width:.1;stroke:#000" points="27.47 22.5 37.57 22.5 38.17 23.1 38.17 25 27.47 25"/><polyline style="fill:none;fill-opacity:0;stroke-width:.05;stroke:#000" points="37.57 22.5 37.57 23.1 38.17 23.1"/><text style="fill:#000;text-anchor:start;font-size:.8;font-family:monospace;font-style:normal;font-weight:400" x="27.82" y="23.7">Data is stored as rows</text><text style="fill:#000;text-anchor:start;font-size:.8;font-family:monospace;font-style:normal;font-weight:400" x="27.82" y="24.5">in a hash table (GHashTable)</text><line style="fill:none;fill-opacity:0;stroke-width:.1;stroke-dasharray:.2;stroke:#000" x1="21.925" x2="21.988" y1="22.45" y2="19.937"/><polygon style="fill:#000" points="21.997 19.562 22.235 20.068 21.988 19.937 21.735 20.055"/><polygon style="fill:none;fill-opacity:0;stroke-width:.1;stroke:#000" points="21.997 19.562 22.235 20.068 21.988 19.937 21.735 20.055"/><line style="fill:none;fill-opacity:0;stroke-width:.1;stroke-dasharray:.2;stroke:#000" x1="32.457" x2="31.751" y1="22.45" y2="19.919"/><polygon style="fill:#000" points="31.65 19.558 32.025 19.972 31.751 19.919 31.544 20.107"/><polygon style="fill:none;fill-opacity:0;stroke-width:.1;stroke:#000" points="31.65 19.558 32.025 19.972 31.751 19.919 31.544 20.107"/><polyline style="fill:none;fill-opacity:0;stroke-width:.1;stroke-dasharray:.4;stroke:#000" points="26.832 9.312 26.832 10.8 10.77 10.8 10.77 11.75"/><polygon style="fill:#fff" points="27.232 9.312 26.832 8.512 26.432 9.312"/><polygon style="fill:none;fill-opacity:0;stroke-width:.1;stroke:#000" points="27.232 9.312 26.832 8.512 26.432 9.312"/><polygon style="fill:#fff" points="4.75 19.55 13.8 19.55 14.4 20.15 14.4 23.65 4.75 23.65"/><polygon style="fill:none;fill-opacity:0;stroke-width:.1;stroke:#000" points="4.75 19.55 13.8 19.55 14.4 20.15 14.4 23.65 4.75 23.65"/><polyline style="fill:none;fill-opacity:0;stroke-width:.05;stroke:#000" points="13.8 19.55 13.8 20.15 14.4 20.15"/><text style="fill:#000;text-anchor:start;font-size:.8;font-family:monospace;font-style:normal;font-weight:400" x="5.1" y="20.75">Data comes from a SELECT</text><text style="fill:#000;text-anchor:start;font-size:.8;font-family:monospace;font-style:normal;font-weight:400" x="5.1" y="21.55">query and can be modified</text><text style="fill:#000;text-anchor:start;font-size:.8;font-family:monospace;font-style:normal;font-weight:400" x="5.1" y="22.35">if INSERT, UPDATE and/or</text><text style="fill:#000;text-anchor:start;font-size:.8;font-family:monospace;font-style:normal;font-weight:400" x="5.1" y="23.15">DELETE queries are given</text><line style="fill:none;fill-opacity:0;stroke-width:.1;stroke-dasharray:.2;stroke:#000" x1="9.575" x2="10.59" y1="19.55" y2="17.002"/><polygon style="fill:#000" points="10.729 16.654 10.776 17.211 10.59 17.002 10.311 17.026"/><polygon style="fill:none;fill-opacity:0;stroke-width:.1;stroke:#000" points="10.729 16.654 10.776 17.211 10.59 17.002 10.311 17.026"/><rect style="fill:#fff" width="9.15" height="1.4" x="39.47" y="11.75"/><rect style="fill:none;fill-opacity:0;stroke-width:.1;stroke:#000" width="9.15" height="1.4" x="39.47" y="11.75"/><text style="fill:#000;text-anchor:middle;font-size:1;font-family:sans;font-style:normal;font-weight:700" x="44.045" y="12.75">GdaDataModelImport</text><rect style="fill:#fff" width="9.15" height="1" x="39.47" y="13.15"/><rect style="fill:none;fill-opacity:0;stroke-width:.1;stroke:#000" width="9.15" height="1" x="39.47" y="13.15"/><text style="fill:#000;text-anchor:start;font-size:.8;font-family:monospace;font-style:normal;font-weight:400" x="39.62" y="14.05">+File or string</text><polyline style="fill:none;fill-opacity:0;stroke-width:.1;stroke-dasharray:.4;stroke:#000" points="26.832 9.312 26.832 10.8 44.045 10.8 44.045 11.7"/><polygon style="fill:#fff" points="27.232 9.312 26.832 8.512 26.432 9.312"/><polygon style="fill:none;fill-opacity:0;stroke-width:.1;stroke:#000" points="27.232 9.312 26.832 8.512 26.432 9.312"/><polygon style="fill:#fff" points="40.45 22.05 48.8 22.05 49.4 22.65 49.4 25.35 40.45 25.35"/><polygon style="fill:none;fill-opacity:0;stroke-width:.1;stroke:#000" points="40.45 22.05 48.8 22.05 49.4 22.65 49.4 25.35 40.45 25.35"/><polyline style="fill:none;fill-opacity:0;stroke-width:.05;stroke:#000" points="48.8 22.05 48.8 22.65 49.4 22.65"/><text style="fill:#000;text-anchor:start;font-size:.8;font-family:monospace;font-style:normal;font-weight:400" x="40.8" y="23.25">Data is imported</text><text style="fill:#000;text-anchor:start;font-size:.8;font-family:monospace;font-style:normal;font-weight:400" x="40.8" y="24.05">from a string or a file</text><text style="fill:#000;text-anchor:start;font-size:.8;font-family:monospace;font-style:normal;font-weight:400" x="40.8" y="24.85">in CSV or XML format</text><line style="fill:none;fill-opacity:0;stroke-width:.1;stroke-dasharray:.2;stroke:#000" x1="44.925" x2="44.099" y1="22.05" y2="14.634"/><polygon style="fill:#000" points="44.057 14.261 44.361 14.73 44.099 14.634 43.864 14.786"/><polygon style="fill:none;fill-opacity:0;stroke-width:.1;stroke:#000" points="44.057 14.261 44.361 14.73 44.099 14.634 43.864 14.786"/><rect style="fill:#fff" width="6.25" height="1.4" x="50.07" y="11.75"/><rect style="fill:none;fill-opacity:0;stroke-width:.1;stroke:#000" width="6.25" height="1.4" x="50.07" y="11.75"/><text style="fill:#000;text-anchor:middle;font-size:1;font-family:sans;font-style:normal;font-weight:700" x="53.195" y="12.75">GdaDataProxy</text><rect style="fill:#fff" width="6.25" height="1" x="50.07" y="13.15"/><rect style="fill:none;fill-opacity:0;stroke-width:.1;stroke:#000" width="6.25" height="1" x="50.07" y="13.15"/><text style="fill:#000;text-anchor:start;font-size:.8;font-family:monospace;font-style:normal;font-weight:400" x="50.22" y="14.05">+Data model</text><polyline style="fill:none;fill-opacity:0;stroke-width:.1;stroke-dasharray:.4;stroke:#000" points="26.832 9.312 26.832 10.8 53.195 10.8 53.195 11.75"/><polygon style="fill:#fff" points="27.232 9.312 26.832 8.512 26.432 9.312"/><polygon style="fill:none;fill-opacity:0;stroke-width:.1;stroke:#000" points="27.232 9.312 26.832 8.512 26.432 9.312"/><polygon style="fill:#fff" points="45.87 16.1 57.72 16.1 58.32 16.7 58.32 21 45.87 21"/><polygon style="fill:none;fill-opacity:0;stroke-width:.1;stroke:#000" points="45.87 16.1 57.72 16.1 58.32 16.7 58.32 21 45.87 21"/><polyline style="fill:none;fill-opacity:0;stroke-width:.05;stroke:#000" points="57.72 16.1 57.72 16.7 58.32 16.7"/><text style="fill:#000;text-anchor:start;font-size:.8;font-family:monospace;font-style:normal;font-weight:400" x="46.22" y="17.3">Data comes from another</text><text style="fill:#000;text-anchor:start;font-size:.8;font-family:monospace;font-style:normal;font-weight:400" x="46.22" y="18.1">GdaDataModel, and modifications</text><text style="fill:#000;text-anchor:start;font-size:.8;font-family:monospace;font-style:normal;font-weight:400" x="46.22" y="18.9">are stored locally in the model</text><text style="fill:#000;text-anchor:start;font-size:.8;font-family:monospace;font-style:normal;font-weight:400" x="46.22" y="19.7">before changes to the other model</text><text style="fill:#000;text-anchor:start;font-size:.8;font-family:monospace;font-style:normal;font-weight:400" x="46.22" y="20.5">are made.</text><line style="fill:none;fill-opacity:0;stroke-width:.1;stroke-dasharray:.2;stroke:#000" x1="52.095" x2="52.956" y1="16.1" y2="14.574"/><polygon style="fill:#000" points="53.14 14.247 53.112 14.806 52.956 14.574 52.677 14.56"/><polygon style="fill:none;fill-opacity:0;stroke-width:.1;stroke:#000" points="53.14 14.247 53.112 14.806 52.956 14.574 52.677 14.56"/><rect style="fill:#fff" width="9.9" height="1.4" x="11.62" y="27.4"/><rect style="fill:none;fill-opacity:0;stroke-width:.1;stroke:#000" width="9.9" height="1.4" x="11.62" y="27.4"/><text style="fill:#000;text-anchor:middle;font-size:1;font-family:sans;font-style:normal;font-weight:700" x="16.57" y="28.4">GdaDataModelFilterSql</text><rect style="fill:#fff" width="9.9" height="1" x="11.62" y="28.8"/><rect style="fill:none;fill-opacity:0;stroke-width:.1;stroke:#000" width="9.9" height="1" x="11.62" y="28.8"/><text style="fill:#000;text-anchor:start;font-size:.8;font-family:monospace;font-style:normal;font-weight:400" x="11.77" y="29.7">+Data model</text><polyline style="fill:none;fill-opacity:0;stroke-width:.1;stroke-dasharray:.4;stroke:#000" points="26.832 9.312 26.832 10.8 16.57 10.8 16.57 27.35"/><polygon style="fill:#fff" points="27.232 9.312 26.832 8.512 26.432 9.312"/><polygon style="fill:none;fill-opacity:0;stroke-width:.1;stroke:#000" points="27.232 9.312 26.832 8.512 26.432 9.312"/><polygon style="fill:#fff" points="11.32 32.3 21.42 32.3 22.02 32.9 22.02 36.4 11.32 36.4"/><polygon style="fill:none;fill-opacity:0;stroke-width:.1;stroke:#000" points="11.32 32.3 21.42 32.3 22.02 32.9 22.02 36.4 11.32 36.4"/><polyline style="fill:none;fill-opacity:0;stroke-width:.05;stroke:#000" points="21.42 32.3 21.42 32.9 22.02 32.9"/><text style="fill:#000;text-anchor:start;font-size:.8;font-family:monospace;font-style:normal;font-weight:400" x="11.67" y="33.5">Data comes from one or more</text><text style="fill:#000;text-anchor:start;font-size:.8;font-family:monospace;font-style:normal;font-weight:400" x="11.67" y="34.3">other GdaDataModel and is</text><text style="fill:#000;text-anchor:start;font-size:.8;font-family:monospace;font-style:normal;font-weight:400" x="11.67" y="35.1">filtered using a very simple</text><text style="fill:#000;text-anchor:start;font-size:.8;font-family:monospace;font-style:normal;font-weight:400" x="11.67" y="35.9">SQL SELECT query</text><line style="fill:none;fill-opacity:0;stroke-width:.1;stroke-dasharray:.2;stroke:#000" x1="16.67" x2="16.59" y1="32.3" y2="30.286"/><polygon style="fill:#000" points="16.575 29.912 16.844 30.401 16.59 30.286 16.345 30.421"/><polygon style="fill:none;fill-opacity:0;stroke-width:.1;stroke:#000" points="16.575 29.912 16.844 30.401 16.59 30.286 16.345 30.421"/><rect style="fill:#fff" width="10.338" height="1.4" x="33.72" y="27.4"/><rect style="fill:none;fill-opacity:0;stroke-width:.1;stroke:#000" width="10.338" height="1.4" x="33.72" y="27.4"/><text style="fill:#000;text-anchor:middle;font-size:1;font-family:sans;font-style:normal;font-weight:700" x="38.889" y="28.4">GdaDataAccessWrapper</text><rect style="fill:#fff" width="10.338" height="1" x="33.72" y="28.8"/><rect style="fill:none;fill-opacity:0;stroke-width:.1;stroke:#000" width="10.338" height="1" x="33.72" y="28.8"/><text style="fill:#000;text-anchor:start;font-size:.8;font-family:monospace;font-style:normal;font-weight:400" x="33.87" y="29.7">+Data model</text><polyline style="fill:none;fill-opacity:0;stroke-width:.1;stroke-dasharray:.4;stroke:#000" points="26.832 9.361 26.832 10.8 38.889 10.8 38.889 27.4"/><polygon style="fill:#fff" points="27.232 9.361 26.832 8.561 26.432 9.361"/><polygon style="fill:none;fill-opacity:0;stroke-width:.1;stroke:#000" points="27.232 9.361 26.832 8.561 26.432 9.361"/><polygon style="fill:#fff" points="31.27 32.3 45.92 32.3 46.52 32.9 46.52 36.4 31.27 36.4"/><polygon style="fill:none;fill-opacity:0;stroke-width:.1;stroke:#000" points="31.27 32.3 45.92 32.3 46.52 32.9 46.52 36.4 31.27 36.4"/><polyline style="fill:none;fill-opacity:0;stroke-width:.05;stroke:#000" points="45.92 32.3 45.92 32.9 46.52 32.9"/><text style="fill:#000;text-anchor:start;font-size:.8;font-family:monospace;font-style:normal;font-weight:400" x="31.62" y="33.5">Data comes from another</text><text style="fill:#000;text-anchor:start;font-size:.8;font-family:monospace;font-style:normal;font-weight:400" x="31.62" y="34.3">GdaDataModel which may only be accessed</text><text style="fill:#000;text-anchor:start;font-size:.8;font-family:monospace;font-style:normal;font-weight:400" x="31.62" y="35.1">using an iterator (no random access), and</text><text style="fill:#000;text-anchor:start;font-size:.8;font-family:monospace;font-style:normal;font-weight:400" x="31.62" y="35.9">providers random access itself</text><line style="fill:none;fill-opacity:0;stroke-width:.1;stroke-dasharray:.2;stroke:#000" x1="38.895" x2="38.89" y1="32.3" y2="30.287"/><polygon style="fill:#000" points="38.889 29.912 39.14 30.411 38.89 30.287 38.64 30.412"/><polygon style="fill:none;fill-opacity:0;stroke-width:.1;stroke:#000" points="38.889 29.912 39.14 30.411 38.89 30.287 38.64 30.412"/></svg>