<svg xmlns="http://www.w3.org/2000/svg" xmlns:svg="http://www.w3.org/2000/svg" id="svg2" width="210mm" height="297mm"><defs id="defs4"><marker style="overflow:visible" id="Arrow2Sstart" orient="auto" refX="0" refY="0"><path style="font-size:12;fill-rule:evenodd;stroke-width:.625;stroke-linejoin:round" id="path3560" d="M 8.7185878,4.0337352 L -2.2072895,0.016013256 L 8.7185884,-4.0017078 C 6.9730900,-1.6296469 6.9831476,1.6157441 8.7185878,4.0337352 z" transform="scale(0.3) translate(-2.3,0)"/></marker><marker style="overflow:visible" id="Arrow2Lend" orient="auto" refX="0" refY="0"><path style="font-size:12;fill-rule:evenodd;stroke-width:.625;stroke-linejoin:round" id="path3551" d="M 8.7185878,4.0337352 L -2.2072895,0.016013256 L 8.7185884,-4.0017078 C 6.9730900,-1.6296469 6.9831476,1.6157441 8.7185878,4.0337352 z" transform="scale(1.1) rotate(180) translate(1,0)"/></marker></defs><metadata id="metadata7"/><g id="layer1"><text id="text3198" x="20.725" y="263.057" xml:space="preserve" style="font-size:11.50565434px;font-style:normal;font-weight:400;fill:#000;fill-opacity:1;stroke:none;stroke-width:1px;stroke-linecap:butt;stroke-linejoin:miter;stroke-opacity:1;font-family:Bitstream Vera Sans"><tspan id="tspan3200" x="20.725" y="263.057">&quot;UPDATE persons SET</tspan><tspan id="tspan3204" x="20.725" y="277.44">firstname=##fname::string</tspan><tspan id="tspan3202" x="20.725" y="291.822">WHERE id=##id::int&quot;</tspan></text><g id="g6325"><path style="opacity:.98235294;fill:none;fill-opacity:1;fill-rule:nonzero;stroke:#000;stroke-width:.7231757;stroke-linecap:round;stroke-linejoin:round;stroke-miterlimit:4;stroke-dasharray:none;stroke-opacity:1" id="rect3155" d="M 55.905977,395.55975 L 55.905977,481.75326 L 218.80132,481.75326 L 218.80132,395.55975 L 188.08894,395.55975 C 188.09868,395.79937 188.11155,396.04095 188.11155,396.28293 C 188.11155,405.96083 180.27503,413.81994 170.59713,413.81994 C 160.91924,413.81995 153.06013,405.96083 153.06013,396.28293 C 153.06013,396.04095 153.073,395.79937 153.08272,395.55975 L 104.81074,395.55975 C 104.82047,395.79937 104.83334,396.04095 104.83334,396.28293 C 104.83334,405.96083 96.996827,413.81994 87.318927,413.81994 C 77.641037,413.81995 69.781917,405.96083 69.781917,396.28293 C 69.781917,396.04095 69.794787,395.79937 69.804507,395.55975 L 55.905977,395.55975 z"/><text style="font-size:6.41466618px;font-style:normal;font-weight:400;fill:#000;fill-opacity:1;stroke:none;stroke-width:1px;stroke-linecap:butt;stroke-linejoin:miter;stroke-opacity:1;font-family:Bitstream Vera Sans" id="text3206" x="91.605" y="463.625" xml:space="preserve"><tspan id="tspan3208" x="91.605" y="463.625">&quot;UPDATE mytable SET</tspan><tspan id="tspan3210" x="91.605" y="471.643">firstname=##fname::string</tspan><tspan id="tspan3212" x="91.605" y="479.661">WHERE id=##id::int&quot;</tspan></text><text style="font-size:7.46158314px;font-style:normal;font-weight:400;text-align:center;text-anchor:middle;fill:#000;fill-opacity:1;stroke:none;stroke-width:1px;stroke-linecap:butt;stroke-linejoin:miter;stroke-opacity:1;font-family:Bitstream Vera Sans" id="text3218" x="86.547" y="420.599" xml:space="preserve"><tspan id="tspan3220" x="86.547" y="420.599">fname</tspan><tspan id="tspan3222" x="86.547" y="429.926">(string)</tspan></text><text style="font-size:7.46158314px;font-style:normal;font-weight:400;text-align:center;text-anchor:middle;fill:#000;fill-opacity:1;stroke:none;stroke-width:1px;stroke-linecap:butt;stroke-linejoin:miter;stroke-opacity:1;font-family:Bitstream Vera Sans" id="text3224" x="170.691" y="421.732" xml:space="preserve"><tspan id="tspan3226" x="170.691" y="421.732">id</tspan><tspan id="tspan3228" x="170.691" y="431.059">(int)</tspan></text><text style="font-size:12px;font-style:normal;font-weight:400;fill:#000;fill-opacity:1;stroke:none;stroke-width:1px;stroke-linecap:butt;stroke-linejoin:miter;stroke-opacity:1;font-family:Bitstream Vera Sans" id="text3230" x="93.439" y="448.796" xml:space="preserve"><tspan id="tspan3232" x="93.439" y="448.796">GdaStatement</tspan></text></g><path id="path5779" d="M 91.923882,293.73762 L 125.25892,394.2478" style="fill:none;fill-opacity:.75;fill-rule:evenodd;stroke:#000;stroke-width:1px;stroke-linecap:butt;stroke-linejoin:miter;stroke-opacity:1;marker-end:url(#Arrow2Lend)"/><g id="g6344" transform="translate(10.606602,-24.243661)"><path style="opacity:.98235294;fill:none;fill-opacity:1;fill-rule:nonzero;stroke:#000;stroke-width:.7231757;stroke-linecap:round;stroke-linejoin:round;stroke-miterlimit:4;stroke-dasharray:none;stroke-opacity:1" id="path3161" d="M 219.10983,297.76379 L 219.10983,336.20801 L 232.28519,336.20801 C 232.3945,345.79217 240.21231,353.54163 249.8222,353.54163 C 259.43209,353.54163 267.24989,345.79216 267.35921,336.20801 L 315.56339,336.20801 C 315.6727,345.79217 323.4905,353.54163 333.1004,353.54163 C 342.71029,353.54163 350.5281,345.79216 350.63741,336.20801 L 382.79614,336.20801 L 382.79614,297.76379 L 219.10983,297.76379 z"/><text style="font-size:12px;font-style:normal;font-weight:400;fill:#000;fill-opacity:1;stroke:none;stroke-width:1px;stroke-linecap:butt;stroke-linejoin:miter;stroke-opacity:1;font-family:Bitstream Vera Sans" id="text6296" x="276.277" y="308.385" xml:space="preserve"><tspan id="tspan6298" x="276.277" y="308.385">GdaSet</tspan></text><text style="font-size:7.46158314px;font-style:normal;font-weight:400;text-align:center;text-anchor:middle;fill:#000;fill-opacity:1;stroke:none;stroke-width:1px;stroke-linecap:butt;stroke-linejoin:miter;stroke-opacity:1;font-family:Bitstream Vera Sans" id="text6313" x="249.759" y="327.751" xml:space="preserve"><tspan id="tspan6315" x="249.759" y="327.751">&quot;joe&quot;</tspan><tspan id="tspan6340" x="249.759" y="337.078">fname</tspan><tspan id="tspan6317" x="249.759" y="346.405">(string)</tspan></text><text style="font-size:7.46158314px;font-style:normal;font-weight:400;text-align:center;text-anchor:middle;fill:#000;fill-opacity:1;stroke:none;stroke-width:1px;stroke-linecap:butt;stroke-linejoin:miter;stroke-opacity:1;font-family:Bitstream Vera Sans" id="text6319" x="333.398" y="327.969" xml:space="preserve"><tspan id="tspan6321" x="333.398" y="327.969">23</tspan><tspan id="tspan6342" x="333.398" y="337.296">id</tspan><tspan id="tspan6323" x="333.398" y="346.623">(int)</tspan></text></g><g id="g6367" transform="translate(8.5862966,-1.0101525)"><path style="opacity:.98235294;fill:#c0deff;fill-opacity:1;fill-rule:nonzero;stroke:#000;stroke-width:1;stroke-linecap:round;stroke-linejoin:round;stroke-miterlimit:4;stroke-dasharray:none;stroke-opacity:1" id="path4313" d="M 170.71578,353.58917 A 56.821079,23.991123 0 1 1 57.07362,353.58917 A 56.821079,23.991123 0 1 1 170.71578,353.58917 z" transform="matrix(0.8238146,0,0,0.8142977,2.3889176,46.469437)"/><text style="font-size:9px;font-style:normal;font-weight:400;text-align:center;text-anchor:middle;fill:#000;fill-opacity:1;stroke:none;stroke-width:1px;stroke-linecap:butt;stroke-linejoin:miter;stroke-opacity:1;font-family:Bitstream Vera Sans" id="text6361" x="94.449" y="331.113" xml:space="preserve"><tspan id="tspan6363" x="94.449" y="331.113">created using</tspan><tspan id="tspan6365" x="94.449" y="342.363">a GdaSqlParser</tspan></text></g><path id="path6393" d="M 215.66757,395.25795 L 256.07367,329.59804" style="fill:none;fill-opacity:.75;fill-rule:evenodd;stroke:#000;stroke-width:1px;stroke-linecap:butt;stroke-linejoin:miter;stroke-opacity:1;marker-end:url(#Arrow2Lend)"/><g id="g6387" transform="translate(-18.687822,-2.5253814)"><path style="opacity:.98235294;fill:#c0deff;fill-opacity:1;fill-rule:nonzero;stroke:#000;stroke-width:1;stroke-linecap:round;stroke-linejoin:round;stroke-miterlimit:4;stroke-dasharray:none;stroke-opacity:1" id="path6375" d="M 170.71578,353.58917 A 56.821079,23.991123 0 1 1 57.07362,353.58917 A 56.821079,23.991123 0 1 1 170.71578,353.58917 z" transform="matrix(1.4663246,0,0,0.736032,88.814539,107.98345)"/><text style="font-size:9px;font-style:normal;font-weight:400;text-align:center;text-anchor:middle;fill:#000;fill-opacity:1;stroke:none;stroke-width:1px;stroke-linecap:butt;stroke-linejoin:miter;stroke-opacity:1;font-family:Bitstream Vera Sans" id="text6377" x="255.821" y="361.67" xml:space="preserve"><tspan id="tspan6379" x="255.821" y="361.67">created using</tspan><tspan id="tspan6381" x="255.821" y="372.92">gda_statement_get_parameters()</tspan></text></g><g id="g6916" transform="translate(15.657364,11.111678)"><rect style="opacity:.98235294;fill:none;fill-opacity:1;fill-rule:nonzero;stroke:#000;stroke-width:.64842147;stroke-linecap:round;stroke-linejoin:round;stroke-miterlimit:4;stroke-dasharray:none;stroke-opacity:1" id="rect6910" width="94.801" height="20.05" x="285.192" y="484.481"/><text style="font-size:9px;font-style:normal;font-weight:400;fill:#000;fill-opacity:1;stroke:none;stroke-width:1px;stroke-linecap:butt;stroke-linejoin:miter;stroke-opacity:1;font-family:Bitstream Vera Sans" id="text6912" x="289.409" y="497.788" xml:space="preserve"><tspan id="tspan6914" x="289.409" y="497.788">Result of execution</tspan></text></g><g id="g6935" transform="translate(31.314729,7.0710678)"><path style="opacity:.98235294;fill:#c0deff;fill-opacity:1;fill-rule:nonzero;stroke:#000;stroke-width:1;stroke-linecap:round;stroke-linejoin:round;stroke-miterlimit:4;stroke-dasharray:none;stroke-opacity:1" id="path6923" d="M 170.71578,353.58917 A 56.821079,23.991123 0 1 1 57.07362,353.58917 A 56.821079,23.991123 0 1 1 170.71578,353.58917 z" transform="matrix(1.2801897,0,0,0.7478178,164.05747,169.72855)"/><text style="font-size:9px;font-style:normal;font-weight:400;text-align:center;text-anchor:middle;fill:#000;fill-opacity:1;stroke:none;stroke-width:1px;stroke-linecap:butt;stroke-linejoin:miter;stroke-opacity:1;font-family:Bitstream Vera Sans" id="text6925" x="308.854" y="426.825" xml:space="preserve"><tspan id="tspan6927" x="308.854" y="426.825">using</tspan><tspan id="tspan6929" x="308.854" y="438.075">gda_connection_statement_*()</tspan></text></g><path id="path6941" d="M 343.95694,329.09296 L 342.94679,422.53207" style="fill:none;fill-opacity:.75;fill-rule:evenodd;stroke:#000;stroke-width:1px;stroke-linecap:butt;stroke-linejoin:miter;stroke-opacity:1;marker-end:url(#Arrow2Lend)"/><path id="path6947" d="M 344.46202,459.90771 L 344.46202,494.75798" style="fill:none;fill-opacity:.75;fill-rule:evenodd;stroke:#000;stroke-width:1px;stroke-linecap:butt;stroke-linejoin:miter;stroke-opacity:1;marker-end:url(#Arrow2Lend)"/><path id="path11594" d="M 218.19295,439.19959 L 267.18535,441.21989" style="fill:none;fill-opacity:.75;fill-rule:evenodd;stroke:#000;stroke-width:1px;stroke-linecap:butt;stroke-linejoin:miter;stroke-opacity:1;marker-end:url(#Arrow2Lend)"/><g id="g12123" transform="translate(-56.568543,-27.779195)"><path style="opacity:.98235294;fill:#ffe200;fill-opacity:1;fill-rule:nonzero;stroke:#000;stroke-width:1;stroke-linecap:round;stroke-linejoin:round;stroke-miterlimit:4;stroke-dasharray:none;stroke-opacity:1" id="path12117" d="M 90.913733,532.13361 A 9.5964489,9.5964489 0 1 1 71.720835,532.13361 A 9.5964489,9.5964489 0 1 1 90.913733,532.13361 z"/><text style="font-size:9px;font-style:normal;font-weight:400;fill:#000;fill-opacity:1;stroke:none;stroke-width:1px;stroke-linecap:butt;stroke-linejoin:miter;stroke-opacity:1;font-family:Bitstream Vera Sans" id="text12119" x="78.375" y="535.414" xml:space="preserve"><tspan id="tspan12121" x="78.375" y="535.414">1</tspan></text></g><g id="g12145" transform="translate(132.5838,-10.433287)"><path style="opacity:.98235294;fill:#ffe200;fill-opacity:1;fill-rule:nonzero;stroke:#000;stroke-width:1;stroke-linecap:round;stroke-linejoin:round;stroke-miterlimit:4;stroke-dasharray:none;stroke-opacity:1" id="path12128" d="M 90.913733,532.13361 A 9.5964489,9.5964489 0 1 1 71.720835,532.13361 A 9.5964489,9.5964489 0 1 1 90.913733,532.13361 z" transform="translate(71.215751,5.0507783)"/><text style="font-size:9px;font-style:normal;font-weight:400;fill:#000;fill-opacity:1;stroke:none;stroke-width:1px;stroke-linecap:butt;stroke-linejoin:miter;stroke-opacity:1;font-family:Bitstream Vera Sans" id="text12130" x="149.591" y="540.465" xml:space="preserve"><tspan id="tspan12132" x="149.591" y="540.465">3</tspan></text></g><g id="g12140" transform="translate(27.354617,-332.41813)"><path style="opacity:.98235294;fill:#ffe200;fill-opacity:1;fill-rule:nonzero;stroke:#000;stroke-width:1;stroke-linecap:round;stroke-linejoin:round;stroke-miterlimit:4;stroke-dasharray:none;stroke-opacity:1" id="path12134" d="M 90.913733,532.13361 A 9.5964489,9.5964489 0 1 1 71.720835,532.13361 A 9.5964489,9.5964489 0 1 1 90.913733,532.13361 z" transform="translate(108.59139,31.314744)"/><text style="font-size:9px;font-style:normal;font-weight:400;fill:#000;fill-opacity:1;stroke:none;stroke-width:1px;stroke-linecap:butt;stroke-linejoin:miter;stroke-opacity:1;font-family:Bitstream Vera Sans" id="text12136" x="186.967" y="566.729" xml:space="preserve"><tspan id="tspan12138" x="186.967" y="566.729">2</tspan></text></g><text id="text12150" x="39.901" y="504.354" xml:space="preserve" style="font-size:9px;font-style:normal;font-weight:400;fill:#000;fill-opacity:1;stroke:none;stroke-width:1px;stroke-linecap:butt;stroke-linejoin:miter;stroke-opacity:1;font-family:Bitstream Vera Sans"><tspan id="tspan12152" x="39.901" y="504.354">Create a GdaStatement from a SQL string.</tspan><tspan id="tspan12154" x="39.901" y="515.604">This object can also be created directly using</tspan><tspan id="tspan12156" x="39.901" y="526.854">the gda_sql_* API.</tspan></text><text id="text12158" x="229.941" y="234.153" xml:space="preserve" style="font-size:9px;font-style:normal;font-weight:400;fill:#000;fill-opacity:1;stroke:none;stroke-width:1px;stroke-linecap:butt;stroke-linejoin:miter;stroke-opacity:1;font-family:Bitstream Vera Sans"><tspan id="tspan12160" x="229.941" y="234.153">Create a GdaSet from the GdaStatement</tspan><tspan id="tspan12162" x="229.941" y="245.403">(or using gda_set_new()), and set the variable&apos;s</tspan><tspan id="tspan12164" x="229.941" y="256.653">values (here the fname variable is set to &quot;joe&quot; and</tspan><tspan id="tspan12174" x="229.941" y="267.903">&quot;id&quot; to the 23 value).</tspan></text><text id="text12166" x="298.3" y="525.986" xml:space="preserve" style="font-size:9px;font-style:normal;font-weight:400;fill:#000;fill-opacity:1;stroke:none;stroke-width:1px;stroke-linecap:butt;stroke-linejoin:miter;stroke-opacity:1;font-family:Bitstream Vera Sans"><tspan id="tspan12168" x="298.3" y="525.986">Execute the statement using both</tspan><tspan id="tspan12170" x="298.3" y="537.236">the GdaStatement and GdaSet thanks</tspan><tspan id="tspan12172" x="298.3" y="548.486">to a GdaConnection object.</tspan></text></g></svg>