<svg xmlns="http://www.w3.org/2000/svg" xmlns:xlink="http://www.w3.org/1999/xlink" width="1776" height="712pt" viewBox="0 0 1332 712"><g id="graph0" class="graph" transform="scale(1 1) rotate(0) translate(4 708)"><title>G</title><polygon style="fill:#fff;stroke:#fff" points="-4 4 -4 -708 1328 -708 1328 4 -4 4"/><g id="node1" class="node"><title>_attributes</title><polygon style="fill:none;stroke:#000" points="1301 -144 1209 -144 1209 -108 1301 -108 1301 -144"/><text x="1255" y="-121.9" text-anchor="middle" style="font-family:Times New Roman;font-size:14">_attributes</text></g><g id="node2" class="node"><title>_information_schema_catalog_name</title><polygon style="fill:none;stroke:#000" points="265 -324 1 -324 1 -288 265 -288 265 -324"/><text x="133" y="-301.9" text-anchor="middle" style="font-family:Times New Roman;font-size:14">_information_schema_catalog_name</text></g><g id="node3" class="node"><title>_builtin_data_types</title><polygon style="fill:none;stroke:#000" points="740 -620 590 -620 590 -584 740 -584 740 -620"/><text x="665" y="-597.9" text-anchor="middle" style="font-family:Times New Roman;font-size:14">_builtin_data_types</text></g><g id="node4" class="node"><title>_element_types</title><polygon style="fill:none;stroke:#000" points="553 -420 429 -420 429 -384 553 -384 553 -420"/><text x="491" y="-397.9" text-anchor="middle" style="font-family:Times New Roman;font-size:14">_element_types</text></g><g id="node5" class="node"><title>_schemata</title><polygon style="fill:none;stroke:#000" points="392 -324 302 -324 302 -288 392 -288 392 -324"/><text x="347" y="-301.9" text-anchor="middle" style="font-family:Times New Roman;font-size:14">_schemata</text></g><g id="edge2" class="edge"><title>_schemata-&gt;_information_schema_catalog_name</title><path style="fill:none;stroke:#000" d="M302,-306C294,-306 285,-306 276,-306"/><polygon style="fill:#000;stroke:#000" points="276 -302.5 266 -306 276 -309.5 276 -302.5"/></g><g id="node7" class="node"><title>_udt</title><polygon style="fill:none;stroke:#000" points="518 -620 464 -620 464 -584 518 -584 518 -620"/><text x="491" y="-597.9" text-anchor="middle" style="font-family:Times New Roman;font-size:14">_udt</text></g><g id="edge4" class="edge"><title>_udt-&gt;_schemata</title><path style="fill:none;stroke:#000" d="M478,-584C464,-565 443,-533 428,-504 398,-445 370,-373 356,-334"/><polygon style="fill:#000;stroke:#000" points="359.226 -332.573 353 -324 352.521 -334.584 359.226 -332.573"/></g><g id="node9" class="node"><title>_domains</title><polygon style="fill:none;stroke:#000" points="705 -512 625 -512 625 -476 705 -476 705 -512"/><text x="665" y="-489.9" text-anchor="middle" style="font-family:Times New Roman;font-size:14">_domains</text></g><g id="edge8" class="edge"><title>_domains-&gt;_element_types</title><path style="fill:none;stroke:#000" d="M631,-476C603,-462 564,-440 534,-425"/><polygon style="fill:#000;stroke:#000" points="535.441 -421.797 525 -420 532.042 -427.916 535.441 -421.797"/></g><g id="edge6" class="edge"><title>_domains-&gt;_schemata</title><path style="fill:none;stroke:#000" d="M624,-499C573,-503 486,-503 428,-462 384,-431 362,-369 353,-334"/><polygon style="fill:#000;stroke:#000" points="356.393 -333.119 351 -324 349.529 -334.492 356.393 -333.119"/></g><g id="node12" class="node"><title>_tables</title><polygon style="fill:none;stroke:#000" points="697 -144 633 -144 633 -108 697 -108 697 -144"/><text x="665" y="-121.9" text-anchor="middle" style="font-family:Times New Roman;font-size:14">_tables</text></g><g id="edge10" class="edge"><title>_tables-&gt;_schemata</title><path style="fill:none;stroke:#000" d="M632,-122C583,-117 490,-115 428,-158 386,-187 364,-244 354,-278"/><polygon style="fill:#000;stroke:#000" points="350.521 -277.416 351 -288 357.226 -279.427 350.521 -277.416"/></g><g id="node14" class="node"><title>_collations</title><polygon style="fill:none;stroke:#000" points="535 -255 447 -255 447 -219 535 -219 535 -255"/><text x="491" y="-232.9" text-anchor="middle" style="font-family:Times New Roman;font-size:14">_collations</text></g><g id="edge12" class="edge"><title>_collations-&gt;_schemata</title><path style="fill:none;stroke:#000" d="M453,-255C435,-264 413,-274 394,-284"/><polygon style="fill:#000;stroke:#000" points="392.717 -280.74 385 -288 395.56 -287.137 392.717 -280.74"/></g><g id="node16" class="node"><title>_routines</title><polygon style="fill:none;stroke:#000" points="531 -347 451 -347 451 -311 531 -311 531 -347"/><text x="491" y="-324.9" text-anchor="middle" style="font-family:Times New Roman;font-size:14">_routines</text></g><g id="edge14" class="edge"><title>_routines-&gt;_schemata</title><path style="fill:none;stroke:#000" d="M450,-322C435,-320 418,-317 402,-315"/><polygon style="fill:#000;stroke:#000" points="402.492 -311.529 392 -313 401.119 -318.393 402.492 -311.529"/></g><g id="node18" class="node"><title>_udt_columns</title><polygon style="fill:none;stroke:#000" points="720 -566 610 -566 610 -530 720 -530 720 -566"/><text x="665" y="-543.9" text-anchor="middle" style="font-family:Times New Roman;font-size:14">_udt_columns</text></g><g id="edge18" class="edge"><title>_udt_columns-&gt;_element_types</title><path style="fill:none;stroke:#000" d="M609,-532C602,-529 596,-525 590,-521 554,-496 525,-455 507,-429"/><polygon style="fill:#000;stroke:#000" points="509.916 -427.042 502 -420 503.797 -430.441 509.916 -427.042"/></g><g id="edge16" class="edge"><title>_udt_columns-&gt;_udt</title><path style="fill:none;stroke:#000" d="M609,-565C583,-574 552,-583 528,-590"/><polygon style="fill:#000;stroke:#000" points="526.573 -586.774 518 -593 528.584 -593.479 526.573 -586.774"/></g><g id="node21" class="node"><title>_enums</title><polygon style="fill:none;stroke:#000" points="699 -674 631 -674 631 -638 699 -638 699 -674"/><text x="665" y="-651.9" text-anchor="middle" style="font-family:Times New Roman;font-size:14">_enums</text></g><g id="edge20" class="edge"><title>_enums-&gt;_udt</title><path style="fill:none;stroke:#000" d="M630,-645C600,-636 558,-623 528,-613"/><polygon style="fill:#000;stroke:#000" points="528.584 -609.521 518 -610 526.573 -616.226 528.584 -609.521"/></g><g id="node23" class="node"><title>_views</title><polygon style="fill:none;stroke:#000" points="886 -144 824 -144 824 -108 886 -108 886 -144"/><text x="855" y="-121.9" text-anchor="middle" style="font-family:Times New Roman;font-size:14">_views</text></g><g id="edge22" class="edge"><title>_views-&gt;_tables</title><path style="fill:none;stroke:#000" d="M823,-126C791,-126 743,-126 708,-126"/><polygon style="fill:#000;stroke:#000" points="708 -122.5 698 -126 708 -129.5 708 -122.5"/></g><g id="node25" class="node"><title>_character_sets</title><polygon style="fill:none;stroke:#000" points="727 -274 603 -274 603 -238 727 -238 727 -274"/><text x="665" y="-251.9" text-anchor="middle" style="font-family:Times New Roman;font-size:14">_character_sets</text></g><g id="edge24" class="edge"><title>_character_sets-&gt;_schemata</title><path style="fill:none;stroke:#000" d="M603,-266C545,-274 459,-288 402,-297"/><polygon style="fill:#000;stroke:#000" points="401.119 -293.607 392 -299 402.492 -300.471 401.119 -293.607"/></g><g id="edge26" class="edge"><title>_character_sets-&gt;_collations</title><path style="fill:none;stroke:#000" d="M603,-249C584,-247 564,-245 545,-243"/><polygon style="fill:#000;stroke:#000" points="545.299 -239.512 535 -242 544.602 -246.478 545.299 -239.512"/></g><g id="node28" class="node"><title>_triggers</title><polygon style="fill:none;stroke:#000" points="893 -198 817 -198 817 -162 893 -162 893 -198"/><text x="855" y="-175.9" text-anchor="middle" style="font-family:Times New Roman;font-size:14">_triggers</text></g><g id="edge28" class="edge"><title>_triggers-&gt;_schemata</title><path style="fill:none;stroke:#000" d="M816,-173C738,-161 557,-144 428,-210 398,-226 375,-256 361,-279"/><polygon style="fill:#000;stroke:#000" points="357.797 -277.559 356 -288 363.916 -280.958 357.797 -277.559"/></g><g id="edge30" class="edge"><title>_triggers-&gt;_tables</title><path style="fill:none;stroke:#000" d="M816,-169C784,-160 740,-148 708,-138"/><polygon style="fill:#000;stroke:#000" points="708.584 -134.521 698 -135 706.573 -141.226 708.584 -134.521"/></g><g id="node31" class="node"><title>_table_constraints</title><polygon style="fill:none;stroke:#000" points="926 -90 784 -90 784 -54 926 -54 926 -90"/><text x="855" y="-67.9" text-anchor="middle" style="font-family:Times New Roman;font-size:14">_table_constraints</text></g><g id="edge32" class="edge"><title>_table_constraints-&gt;_tables</title><path style="fill:none;stroke:#000" d="M791,-90C764,-98 732,-107 708,-114"/><polygon style="fill:#000;stroke:#000" points="706.573 -110.774 698 -117 708.584 -117.479 706.573 -110.774"/></g><g id="node33" class="node"><title>_domain_constraints</title><polygon style="fill:none;stroke:#000" points="934 -489 776 -489 776 -453 934 -453 934 -489"/><text x="855" y="-466.9" text-anchor="middle" style="font-family:Times New Roman;font-size:14">_domain_constraints</text></g><g id="edge36" class="edge"><title>_domain_constraints-&gt;_schemata</title><path style="fill:none;stroke:#000" d="M776,-467C660,-460 456,-446 428,-429 391,-408 368,-363 357,-334"/><polygon style="fill:#000;stroke:#000" points="359.964 -331.985 353 -324 353.464 -334.585 359.964 -331.985"/></g><g id="edge34" class="edge"><title>_domain_constraints-&gt;_domains</title><path style="fill:none;stroke:#000" d="M776,-481C756,-484 734,-486 716,-488"/><polygon style="fill:#000;stroke:#000" points="715.602 -484.522 706 -489 716.299 -491.488 715.602 -484.522"/></g><g id="node36" class="node"><title>_parameters</title><polygon style="fill:none;stroke:#000" points="716 -382 614 -382 614 -346 716 -346 716 -382"/><text x="665" y="-359.9" text-anchor="middle" style="font-family:Times New Roman;font-size:14">_parameters</text></g><g id="edge40" class="edge"><title>_parameters-&gt;_element_types</title><path style="fill:none;stroke:#000" d="M614,-375C598,-378 580,-382 564,-386"/><polygon style="fill:#000;stroke:#000" points="563.119 -382.607 554 -388 564.492 -389.471 563.119 -382.607"/></g><g id="edge38" class="edge"><title>_parameters-&gt;_routines</title><path style="fill:none;stroke:#000" d="M614,-354C591,-349 564,-344 542,-339"/><polygon style="fill:#000;stroke:#000" points="542.492 -335.529 532 -337 541.119 -342.393 542.492 -335.529"/></g><g id="node39" class="node"><title>_routine_columns</title><polygon style="fill:none;stroke:#000" points="734 -328 596 -328 596 -292 734 -292 734 -328"/><text x="665" y="-305.9" text-anchor="middle" style="font-family:Times New Roman;font-size:14">_routine_columns</text></g><g id="edge44" class="edge"><title>_routine_columns-&gt;_element_types</title><path style="fill:none;stroke:#000" d="M610,-328C603,-331 596,-334 590,-337 566,-348 542,-365 524,-378"/><polygon style="fill:#000;stroke:#000" points="521.379 -375.541 515 -384 525.262 -381.365 521.379 -375.541"/></g><g id="edge42" class="edge"><title>_routine_columns-&gt;_routines</title><path style="fill:none;stroke:#000" d="M596,-318C578,-320 559,-322 542,-324"/><polygon style="fill:#000;stroke:#000" points="541.602 -320.522 532 -325 542.299 -327.488 541.602 -320.522"/></g><g id="node42" class="node"><title>_table_indexes</title><polygon style="fill:none;stroke:#000" points="913 -36 797 -36 797 0 913 0 913 -36"/><text x="855" y="-13.9" text-anchor="middle" style="font-family:Times New Roman;font-size:14">_table_indexes</text></g><g id="edge46" class="edge"><title>_table_indexes-&gt;_tables</title><path style="fill:none;stroke:#000" d="M796,-36C789,-39 782,-42 776,-45 746,-61 715,-84 694,-102"/><polygon style="fill:#000;stroke:#000" points="691.9 -99.2 686 -108 696.1 -104.8 691.9 -99.2"/></g><g id="node44" class="node"><title>_all_types</title><ellipse style="fill:none;stroke:#000" cx="855" cy="-602" rx="57.871" ry="18"/><text x="855" y="-597.9" text-anchor="middle" style="font-family:Times New Roman;font-size:14">_all_types</text></g><g id="edge48" class="edge"><title>_all_types-&gt;_builtin_data_types</title><path style="fill:none;stroke:#000" d="M796,-602C781,-602 766,-602 750,-602"/><polygon style="fill:#000;stroke:#000" points="750 -598.5 740 -602 750 -605.5 750 -598.5"/></g><g id="edge50" class="edge"><title>_all_types-&gt;_udt</title><path style="fill:none;stroke:#000" d="M838,-619C817,-639 779,-670 740,-683 676,-703 652,-705 590,-683 559,-672 531,-647 513,-627"/><polygon style="fill:#000;stroke:#000" points="515.546 -624.596 506 -620 510.596 -629.546 515.546 -624.596"/></g><g id="edge52" class="edge"><title>_all_types-&gt;_domains</title><path style="fill:none;stroke:#000" d="M835,-585C813,-567 775,-539 740,-521 732,-517 724,-513 715,-510"/><polygon style="fill:#000;stroke:#000" points="716.56 -506.863 706 -506 713.717 -513.26 716.56 -506.863"/></g><g id="node48" class="node"><title>_columns</title><polygon style="fill:none;stroke:#000" points="895 -252 815 -252 815 -216 895 -216 895 -252"/><text x="855" y="-229.9" text-anchor="middle" style="font-family:Times New Roman;font-size:14">_columns</text></g><g id="edge60" class="edge"><title>_columns-&gt;_element_types</title><path style="fill:none;stroke:#000" d="M848,-252C834,-287 797,-360 740,-391 686,-420 615,-420 564,-415"/><polygon style="fill:#000;stroke:#000" points="564.299 -411.512 554 -414 563.602 -418.478 564.299 -411.512"/></g><g id="edge54" class="edge"><title>_columns-&gt;_tables</title><path style="fill:none;stroke:#000" d="M815,-223C802,-219 788,-214 776,-207 746,-191 715,-168 694,-150"/><polygon style="fill:#000;stroke:#000" points="696.1 -147.2 686 -144 691.9 -152.8 696.1 -147.2"/></g><g id="edge58" class="edge"><title>_columns-&gt;_collations</title><path style="fill:none;stroke:#000" d="M815,-232C763,-230 669,-226 590,-229 576,-230 560,-231 545,-232"/><polygon style="fill:#000;stroke:#000" points="544.602 -228.522 535 -233 545.299 -235.488 544.602 -228.522"/></g><g id="edge56" class="edge"><title>_columns-&gt;_character_sets</title><path style="fill:none;stroke:#000" d="M815,-239C792,-242 763,-245 737,-248"/><polygon style="fill:#000;stroke:#000" points="736.602 -244.522 727 -249 737.299 -251.488 736.602 -244.522"/></g><g id="node53" class="node"><title>_referential_constraints</title><polygon style="fill:none;stroke:#000" points="1150 -90 970 -90 970 -54 1150 -54 1150 -90"/><text x="1060" y="-67.9" text-anchor="middle" style="font-family:Times New Roman;font-size:14">_referential_constraints</text></g><g id="edge62" class="edge"><title>_referential_constraints-&gt;_table_constraints</title><path style="fill:none;stroke:#000" d="M970,-65C959,-65 947,-65 936,-65"/><polygon style="fill:#000;stroke:#000" points="936 -61.5 926 -65 936 -68.5 936 -61.5"/></g><g id="edge64" class="edge"><title>_referential_constraints-&gt;_table_constraints</title><path style="fill:none;stroke:#000" d="M970,-79C959,-79 947,-79 936,-79"/><polygon style="fill:#000;stroke:#000" points="936 -75.5 926 -79 936 -82.5 936 -75.5"/></g><g id="node56" class="node"><title>_index_column_usage</title><polygon style="fill:none;stroke:#000" points="1143 -36 977 -36 977 0 1143 0 1143 -36"/><text x="1060" y="-13.9" text-anchor="middle" style="font-family:Times New Roman;font-size:14">_index_column_usage</text></g><g id="edge66" class="edge"><title>_index_column_usage-&gt;_table_indexes</title><path style="fill:none;stroke:#000" d="M977,-18C960,-18 941,-18 924,-18"/><polygon style="fill:#000;stroke:#000" points="924 -14.5 914 -18 924 -21.5 924 -14.5"/></g><g id="node58" class="node"><title>_key_column_usage</title><polygon style="fill:none;stroke:#000" points="1136 -198 984 -198 984 -162 1136 -162 1136 -198"/><text x="1060" y="-175.9" text-anchor="middle" style="font-family:Times New Roman;font-size:14">_key_column_usage</text></g><g id="edge68" class="edge"><title>_key_column_usage-&gt;_table_constraints</title><path style="fill:none;stroke:#000" d="M984,-162C979,-159 974,-156 970,-153 946,-136 956,-117 934,-99 932,-98 930,-97 928,-95"/><polygon style="fill:#000;stroke:#000" points="929.441 -91.797 919 -90 926.042 -97.916 929.441 -91.797"/></g><g id="edge70" class="edge"><title>_key_column_usage-&gt;_columns</title><path style="fill:none;stroke:#000" d="M991,-198C963,-206 931,-214 905,-221"/><polygon style="fill:#000;stroke:#000" points="903.573 -217.774 895 -224 905.584 -224.479 903.573 -217.774"/></g><g id="node61" class="node"><title>_check_column_usage</title><polygon style="fill:none;stroke:#000" points="1144 -144 976 -144 976 -108 1144 -108 1144 -144"/><text x="1060" y="-121.9" text-anchor="middle" style="font-family:Times New Roman;font-size:14">_check_column_usage</text></g><g id="edge72" class="edge"><title>_check_column_usage-&gt;_table_constraints</title><path style="fill:none;stroke:#000" d="M991,-108C972,-103 953,-98 934,-93"/><polygon style="fill:#000;stroke:#000" points="934.584 -89.521 924 -90 932.573 -96.226 934.584 -89.521"/></g><g id="edge74" class="edge"><title>_check_column_usage-&gt;_columns</title><path style="fill:none;stroke:#000" d="M985,-144C980,-147 975,-150 970,-153 946,-171 956,-190 934,-207 926,-214 915,-219 905,-223"/><polygon style="fill:#000;stroke:#000" points="903.573 -219.774 895 -226 905.584 -226.479 903.573 -219.774"/></g><g id="node64" class="node"><title>_view_column_usage</title><polygon style="fill:none;stroke:#000" points="1141 -252 979 -252 979 -216 1141 -216 1141 -252"/><text x="1060" y="-229.9" text-anchor="middle" style="font-family:Times New Roman;font-size:14">_view_column_usage</text></g><g id="edge76" class="edge"><title>_view_column_usage-&gt;_views</title><path style="fill:none;stroke:#000" d="M984,-216C979,-213 974,-210 970,-207 946,-190 956,-171 934,-153 923,-145 909,-139 897,-135"/><polygon style="fill:#000;stroke:#000" points="897.584 -131.521 887 -132 895.573 -138.226 897.584 -131.521"/></g><g id="edge78" class="edge"><title>_view_column_usage-&gt;_columns</title><path style="fill:none;stroke:#000" d="M979,-234C954,-234 927,-234 905,-234"/><polygon style="fill:#000;stroke:#000" points="905 -230.5 895 -234 905 -237.5 905 -230.5"/></g><g id="node67" class="node"><title>_detailed_fk</title><ellipse style="fill:none;stroke:#000" cx="1255" cy="-180" rx="68.793" ry="18"/><text x="1255" y="-175.9" text-anchor="middle" style="font-family:Times New Roman;font-size:14">_detailed_fk</text></g><g id="edge80" class="edge"><title>_detailed_fk-&gt;_referential_constraints</title><path style="fill:none;stroke:#000" d="M1208,-167C1200,-163 1193,-158 1186,-153 1163,-135 1173,-117 1150,-99 1148,-98 1146,-97 1144,-95"/><polygon style="fill:#000;stroke:#000" points="1145.44 -91.797 1135 -90 1142.04 -97.916 1145.44 -91.797"/></g><g id="edge82" class="edge"><title>_detailed_fk-&gt;_key_column_usage</title><path style="fill:none;stroke:#000" d="M1190,-174C1176,-173 1161,-173 1147,-173"/><polygon style="fill:#000;stroke:#000" points="1147 -169.5 1137 -173 1147 -176.5 1147 -169.5"/></g><g id="edge84" class="edge"><title>_detailed_fk-&gt;_key_column_usage</title><path style="fill:none;stroke:#000" d="M1190,-186C1176,-187 1161,-187 1147,-187"/><polygon style="fill:#000;stroke:#000" points="1147 -183.5 1137 -187 1147 -190.5 1147 -183.5"/></g></g></svg>