<svg xmlns="http://www.w3.org/2000/svg" xmlns:xlink="http://www.w3.org/1999/xlink" width="1900.8" height="628.8"><g id="graph0" class="graph" transform="scale(1.33333 1.33333) rotate(0) translate(4 468)"><title>G</title><polygon style="fill:#fff;stroke:#fff" points="-4 4 -4 -468 1422 -468 1422 4 -4 4"/><g id="node1" class="node"><title>c7</title><text x="82" y="-447.667" text-anchor="middle" style="font:arialbd;font-size:8.1pt">GdaSqlAnyPart</text><polygon style="fill:none;stroke:#000" points="8 -442 8 -460 156 -460 156 -442 8 -442"/><text x="12" y="-429.667" text-anchor="start" style="font-family:Nimbus Sans L;font-weight:regular;font-size:8.1pt">~ type : GdaSqlAnyPartType</text><text x="12" y="-417.667" text-anchor="start" style="font-family:Nimbus Sans L;font-weight:regular;font-size:8.1pt">~ parent : GdaSqlAnyPart</text><polygon style="fill:none;stroke:#000" points="8 -412 8 -442 156 -442 156 -412 8 -412"/></g><g id="node2" class="node"><title>c8</title><text x="584" y="-239.667" text-anchor="middle" style="font:arialbd;font-size:8.1pt">GdaSqlExpr</text><polygon style="fill:none;stroke:#000" points="495 -234 495 -252 673 -252 673 -234 495 -234"/><text x="499" y="-221.667" text-anchor="start" style="font-family:Nimbus Sans L;font-weight:regular;font-size:8.1pt">~ value : GValue</text><text x="499" y="-209.667" text-anchor="start" style="font-family:Nimbus Sans L;font-weight:regular;font-size:8.1pt">~ param_spec : GdaSqlParamSpec</text><text x="499" y="-197.667" text-anchor="start" style="font-family:Nimbus Sans L;font-weight:regular;font-size:8.1pt">~ func : GdaSqlFunction</text><text x="499" y="-185.667" text-anchor="start" style="font-family:Nimbus Sans L;font-weight:regular;font-size:8.1pt">~ cond : GdaSqlOperation</text><text x="499" y="-173.667" text-anchor="start" style="font-family:Nimbus Sans L;font-weight:regular;font-size:8.1pt">~ select : GdaSqlAnyPart</text><text x="499" y="-161.667" text-anchor="start" style="font-family:Nimbus Sans L;font-weight:regular;font-size:8.1pt">~ case_s : GdaSqlCase</text><text x="499" y="-149.667" text-anchor="start" style="font-family:Nimbus Sans L;font-weight:regular;font-size:8.1pt">~ cast_as : String</text><polygon style="fill:none;stroke:#000" points="495 -144 495 -234 673 -234 673 -144 495 -144"/></g><g id="node5" class="node"><title>c9</title><text x="242" y="-87.667" text-anchor="middle" style="font:arialbd;font-size:8.1pt">GdaSqlParamSpec</text><polygon style="fill:none;stroke:#000" points="183 -82 183 -100 301 -100 301 -82 183 -82"/><text x="187" y="-69.667" text-anchor="start" style="font-family:Nimbus Sans L;font-weight:regular;font-size:8.1pt">~ name : String</text><text x="187" y="-57.667" text-anchor="start" style="font-family:Nimbus Sans L;font-weight:regular;font-size:8.1pt">~ descr : String</text><text x="187" y="-45.667" text-anchor="start" style="font-family:Nimbus Sans L;font-weight:regular;font-size:8.1pt">~ type : String</text><text x="187" y="-33.667" text-anchor="start" style="font-family:Nimbus Sans L;font-weight:regular;font-size:8.1pt">~ is_param : gboolean</text><text x="187" y="-21.667" text-anchor="start" style="font-family:Nimbus Sans L;font-weight:regular;font-size:8.1pt">~ nullok : gboolean</text><text x="187" y="-9.667" text-anchor="start" style="font-family:Nimbus Sans L;font-weight:regular;font-size:8.1pt">~ g_type : GType</text><polygon style="fill:none;stroke:#000" points="183 -4 183 -82 301 -82 301 -4 183 -4"/></g><g id="edge20" class="edge"><title>c8-&gt;c9</title><path style="fill:none;stroke:#000" d="M495,-147C489,-144 484,-142 478,-140 409,-114 384,-133 318,-104 315,-103 313,-101 310,-100"/><polygon style="fill:#000;stroke:#000" points="301 -95 311.927 -95.923 303.622 -96.457 309.742 -99.856 303.622 -96.457 307.556 -103.79 301 -95 301 -95"/></g><g id="node8" class="node"><title>c10</title><text x="412" y="-63.667" text-anchor="middle" style="font:arialbd;font-size:8.1pt">GdaSqlFunction</text><polygon style="fill:none;stroke:#000" points="335 -58 335 -76 489 -76 489 -58 335 -58"/><text x="339" y="-45.667" text-anchor="start" style="font-family:Nimbus Sans L;font-weight:regular;font-size:8.1pt">~ function_name : String</text><text x="339" y="-33.667" text-anchor="start" style="font-family:Nimbus Sans L;font-weight:regular;font-size:8.1pt">~ args_list : List&lt;GdaSqlExpr&gt;</text><polygon style="fill:none;stroke:#000" points="335 -28 335 -58 489 -58 489 -28 335 -28"/></g><g id="edge22" class="edge"><title>c8-&gt;c10</title><path style="fill:none;stroke:#000" d="M513,-144C489,-124 463,-101 443,-83"/><polygon style="fill:#000;stroke:#000" points="436 -76 446.253 -79.889 438.121 -78.121 443.071 -83.071 438.121 -78.121 439.889 -86.253 436 -76 436 -76"/></g><g id="node13" class="node"><title>c14</title><text x="603" y="-63.667" text-anchor="middle" style="font:arialbd;font-size:8.1pt">GdaSqlOperation</text><polygon style="fill:none;stroke:#000" points="523 -58 523 -76 683 -76 683 -58 523 -58"/><text x="527" y="-45.667" text-anchor="start" style="font-family:Nimbus Sans L;font-weight:regular;font-size:8.1pt">~ operator : GdaSqlOperator</text><text x="527" y="-33.667" text-anchor="start" style="font-family:Nimbus Sans L;font-weight:regular;font-size:8.1pt">~ operands : List&lt;GdaSqlExpr&gt;</text><polygon style="fill:none;stroke:#000" points="523 -28 523 -58 683 -58 683 -28 523 -28"/></g><g id="edge24" class="edge"><title>c8-&gt;c14</title><path style="fill:none;stroke:#000" d="M585,-144C587,-125 590,-103 593,-86"/><polygon style="fill:#000;stroke:#000" points="595 -76 597.451 -86.688 594.412 -78.942 593.039 -85.806 594.412 -78.942 588.626 -84.923 595 -76 595 -76"/></g><g id="node16" class="node"><title>c15</title><text x="810" y="-75.667" text-anchor="middle" style="font:arialbd;font-size:8.1pt">GdaSqlCase</text><polygon style="fill:none;stroke:#000" points="717 -70 717 -88 903 -88 903 -70 717 -70"/><text x="721" y="-57.667" text-anchor="start" style="font-family:Nimbus Sans L;font-weight:regular;font-size:8.1pt">~ base_expr : GdaSqlExpr</text><text x="721" y="-45.667" text-anchor="start" style="font-family:Nimbus Sans L;font-weight:regular;font-size:8.1pt">~ when_expr_list : List&lt;GdaSqlExpr&gt;</text><text x="721" y="-33.667" text-anchor="start" style="font-family:Nimbus Sans L;font-weight:regular;font-size:8.1pt">~ then_expr_list : List&lt;GdaSqlExpr&gt;</text><text x="721" y="-21.667" text-anchor="start" style="font-family:Nimbus Sans L;font-weight:regular;font-size:8.1pt">~ else_expr : GdaSqlExpr</text><polygon style="fill:none;stroke:#000" points="717 -16 717 -70 903 -70 903 -16 717 -16"/></g><g id="edge26" class="edge"><title>c8-&gt;c15</title><path style="fill:none;stroke:#000" d="M661,-144C687,-127 714,-109 739,-93"/><polygon style="fill:#000;stroke:#000" points="748 -88 741.444 -96.79 745.378 -89.457 739.258 -92.856 745.378 -89.457 737.073 -88.923 748 -88 748 -88"/></g><g id="node3" class="node"><title>n0cc8</title><polygon style="fill:none;stroke:#000" points="353 -357 153 -357 153 -307 353 -307 353 -357"/><text x="164" y="-341.667" text-anchor="start" style="font-family:Nimbus Sans L;font-weight:regular;font-size:8.1pt;fill:#00f">Any Expression, the select field</text><text x="164" y="-329.667" text-anchor="start" style="font-family:Nimbus Sans L;font-weight:regular;font-size:8.1pt;fill:#00f">is either a GdaSqlStatementSelect or</text><text x="164" y="-317.667" text-anchor="start" style="font-family:Nimbus Sans L;font-weight:regular;font-size:8.1pt;fill:#00f">a GdaSqlStatementCompound</text></g><g id="edge2" class="edge"><title>n0cc8-&gt;c8</title><path style="fill:none;stroke:#000" d="M319,-307C334,-302 348,-297 362,-292 413,-274 428,-277 478,-256 484,-254 489,-251 495,-248"/></g><g id="node6" class="node"><title>n0cc9</title><polygon style="fill:none;stroke:#000" points="302 -216 182 -216 182 -180 302 -180 302 -216"/><text x="193" y="-194.667" text-anchor="start" style="font-family:Nimbus Sans L;font-weight:regular;font-size:8.1pt;fill:#00f">Variable description</text></g><g id="edge4" class="edge"><title>n0cc9-&gt;c9</title><path style="fill:none;stroke:#000" d="M242,-180C242,-160 242,-127 242,-100"/></g><g id="edge28" class="edge"><title>c10-&gt;c8</title><path style="fill:none;stroke:#000" d="M446,-76C467,-93 494,-116 519,-137"/><polygon style="fill:#000;stroke:#000" points="527 -144 516.511 -140.802 524.742 -142.024 519.474 -137.415 524.742 -142.024 522.437 -134.028 527 -144 527 -144"/></g><g id="node9" class="node"><title>n0cc10</title><polygon style="fill:none;stroke:#000" points="469 -216 331 -216 331 -180 469 -180 469 -216"/><text x="342" y="-194.667" text-anchor="start" style="font-family:Nimbus Sans L;font-weight:regular;font-size:8.1pt;fill:#00f">A function or aggragate</text></g><g id="edge6" class="edge"><title>n0cc10-&gt;c10</title><path style="fill:none;stroke:#000" d="M401,-180C404,-154 408,-105 410,-76"/></g><g id="node11" class="node"><title>c11</title><text x="1207" y="-441.667" text-anchor="middle" style="font:arialbd;font-size:8.1pt">GdaSqlField</text><polygon style="fill:none;stroke:#000" points="1152 -436 1152 -454 1262 -454 1262 -436 1152 -436"/><text x="1156" y="-423.667" text-anchor="start" style="font-family:Nimbus Sans L;font-weight:regular;font-size:8.1pt">~ field_name : String</text><polygon style="fill:none;stroke:#000" points="1152 -418 1152 -436 1262 -436 1262 -418 1152 -418"/></g><g id="node12" class="node"><title>c12</title><text x="1353" y="-441.667" text-anchor="middle" style="font:arialbd;font-size:8.1pt">GdaSqlTable</text><polygon style="fill:none;stroke:#000" points="1296 -436 1296 -454 1410 -454 1410 -436 1296 -436"/><text x="1300" y="-423.667" text-anchor="start" style="font-family:Nimbus Sans L;font-weight:regular;font-size:8.1pt">~ table_name : String</text><polygon style="fill:none;stroke:#000" points="1296 -418 1296 -436 1410 -436 1410 -418 1296 -418"/></g><g id="edge30" class="edge"><title>c14-&gt;c8</title><path style="fill:none;stroke:#000" d="M605,-76C604,-92 602,-114 599,-134"/><polygon style="fill:#000;stroke:#000" points="598 -144 594.517 -133.602 598.299 -141.015 598.995 -134.05 598.299 -141.015 603.473 -134.497 598 -144 598 -144"/></g><g id="node14" class="node"><title>n0cc14</title><polygon style="fill:none;stroke:#000" points="913 -217 699 -217 699 -179 913 -179 913 -217"/><text x="710" y="-201.667" text-anchor="start" style="font-family:Nimbus Sans L;font-weight:regular;font-size:8.1pt;fill:#00f">any combination of GdaSqlExpr, such as</text><text x="710" y="-189.667" text-anchor="start" style="font-family:Nimbus Sans L;font-weight:regular;font-size:8.1pt;fill:#00f">&quot;a AND b&quot;, or &quot;&apos;string&apos; || field&quot;</text></g><g id="edge8" class="edge"><title>n0cc14-&gt;c14</title><path style="fill:none;stroke:#000" d="M779,-179C742,-152 676,-105 637,-76"/></g><g id="edge32" class="edge"><title>c15-&gt;c8</title><path style="fill:none;stroke:#000" d="M760,-88C737,-103 709,-122 681,-140"/><polygon style="fill:#000;stroke:#000" points="673 -145 679.095 -135.884 675.544 -143.41 681.48 -139.7 675.544 -143.41 683.865 -143.516 673 -145 673 -145"/></g><g id="node17" class="node"><title>n0cc15</title><polygon style="fill:none;stroke:#000" points="1031 -241 931 -241 931 -155 1031 -155 1031 -241"/><text x="942" y="-225.667" text-anchor="start" style="font-family:Nimbus Sans L;font-weight:regular;font-size:8.1pt;fill:#00f">CASE &lt;expr&gt;</text><text x="942" y="-213.667" text-anchor="start" style="font-family:Nimbus Sans L;font-weight:regular;font-size:8.1pt;fill:#00f">WHEN &lt;expr&gt;</text><text x="942" y="-201.667" text-anchor="start" style="font-family:Nimbus Sans L;font-weight:regular;font-size:8.1pt;fill:#00f">THEN &lt;expr&gt;</text><text x="942" y="-189.667" text-anchor="start" style="font-family:Nimbus Sans L;font-weight:regular;font-size:8.1pt;fill:#00f">ELSE &lt;expr&gt;</text><text x="942" y="-177.667" text-anchor="start" style="font-family:Nimbus Sans L;font-weight:regular;font-size:8.1pt;fill:#00f">END;</text><text x="942" y="-165.667" text-anchor="start" style="font-family:Nimbus Sans L;font-weight:regular;font-size:8.1pt;fill:#00f">construct</text></g><g id="edge10" class="edge"><title>n0cc15-&gt;c15</title><path style="fill:none;stroke:#000" d="M938,-155C933,-150 927,-145 922,-140 902,-122 878,-104 858,-88"/></g><g id="node19" class="node"><title>c16</title><text x="436" y="-355.667" text-anchor="middle" style="font:arialbd;font-size:8.1pt">GdaSqlSelectField</text><polygon style="fill:none;stroke:#000" points="379 -350 379 -368 493 -368 493 -350 379 -350"/><text x="383" y="-337.667" text-anchor="start" style="font-family:Nimbus Sans L;font-weight:regular;font-size:8.1pt">~ expr : GdaSqlExpr</text><text x="383" y="-325.667" text-anchor="start" style="font-family:Nimbus Sans L;font-weight:regular;font-size:8.1pt">~ field_name : String</text><text x="383" y="-313.667" text-anchor="start" style="font-family:Nimbus Sans L;font-weight:regular;font-size:8.1pt">~ table_name : String</text><text x="383" y="-301.667" text-anchor="start" style="font-family:Nimbus Sans L;font-weight:regular;font-size:8.1pt">~ as : String</text><polygon style="fill:none;stroke:#000" points="379 -296 379 -350 493 -350 493 -296 379 -296"/></g><g id="edge34" class="edge"><title>c16-&gt;c8</title><path style="fill:none;stroke:#000" d="M476,-296C489,-284 503,-272 516,-259"/><polygon style="fill:#000;stroke:#000" points="524 -252 519.437 -261.972 521.742 -253.976 516.474 -258.585 521.742 -253.976 513.511 -255.198 524 -252 524 -252"/></g><g id="node20" class="node"><title>n0cc16</title><polygon style="fill:none;stroke:#000" points="378 -455 182 -455 182 -417 378 -417 378 -455"/><text x="193" y="-439.667" text-anchor="start" style="font-family:Nimbus Sans L;font-weight:regular;font-size:8.1pt;fill:#00f">An expression selected in a SELECT</text><text x="193" y="-427.667" text-anchor="start" style="font-family:Nimbus Sans L;font-weight:regular;font-size:8.1pt;fill:#00f">statement</text></g><g id="edge12" class="edge"><title>n0cc16-&gt;c16</title><path style="fill:none;stroke:#000" d="M309,-417C329,-403 358,-385 382,-368"/></g><g id="node22" class="node"><title>c17</title><text x="584" y="-349.667" text-anchor="middle" style="font:arialbd;font-size:8.1pt">GdaSqlSelectTarget</text><polygon style="fill:none;stroke:#000" points="527 -344 527 -362 641 -362 641 -344 527 -344"/><text x="531" y="-331.667" text-anchor="start" style="font-family:Nimbus Sans L;font-weight:regular;font-size:8.1pt">~ expr : GdaSqlExpr</text><text x="531" y="-319.667" text-anchor="start" style="font-family:Nimbus Sans L;font-weight:regular;font-size:8.1pt">~ table_name : String</text><text x="531" y="-307.667" text-anchor="start" style="font-family:Nimbus Sans L;font-weight:regular;font-size:8.1pt">~ as : String</text><polygon style="fill:none;stroke:#000" points="527 -302 527 -344 641 -344 641 -302 527 -302"/></g><g id="edge36" class="edge"><title>c17-&gt;c8</title><path style="fill:none;stroke:#000" d="M584,-302C584,-290 584,-276 584,-262"/><polygon style="fill:#000;stroke:#000" points="584 -252 588.5 -262 584 -255 584 -262 584 -255 579.5 -262 584 -252 584 -252"/></g><g id="node23" class="node"><title>n0cc17</title><polygon style="fill:none;stroke:#000" points="594 -455 396 -455 396 -417 594 -417 594 -455"/><text x="407" y="-439.667" text-anchor="start" style="font-family:Nimbus Sans L;font-weight:regular;font-size:8.1pt;fill:#00f">A target (table or SELECT statement)</text><text x="407" y="-427.667" text-anchor="start" style="font-family:Nimbus Sans L;font-weight:regular;font-size:8.1pt;fill:#00f">in a SELECT statement</text></g><g id="edge14" class="edge"><title>n0cc17-&gt;c17</title><path style="fill:none;stroke:#000" d="M511,-417C524,-402 543,-380 558,-362"/></g><g id="node25" class="node"><title>c19</title><text x="754" y="-355.667" text-anchor="middle" style="font:arialbd;font-size:8.1pt">GdaSqlSelectJoin</text><polygon style="fill:none;stroke:#000" points="675 -350 675 -368 833 -368 833 -350 675 -350"/><text x="679" y="-337.667" text-anchor="start" style="font-family:Nimbus Sans L;font-weight:regular;font-size:8.1pt">~ type : GdaSqlSelectJoinType</text><text x="679" y="-325.667" text-anchor="start" style="font-family:Nimbus Sans L;font-weight:regular;font-size:8.1pt">~ position : gint</text><text x="679" y="-313.667" text-anchor="start" style="font-family:Nimbus Sans L;font-weight:regular;font-size:8.1pt">~ expr : GdaSqlExpr</text><text x="679" y="-301.667" text-anchor="start" style="font-family:Nimbus Sans L;font-weight:regular;font-size:8.1pt">~ using : List&lt;GdaSqlField&gt;</text><polygon style="fill:none;stroke:#000" points="675 -296 675 -350 833 -350 833 -296 675 -296"/></g><g id="edge38" class="edge"><title>c19-&gt;c8</title><path style="fill:none;stroke:#000" d="M708,-296C694,-284 677,-271 661,-259"/><polygon style="fill:#000;stroke:#000" points="653 -252 663.489 -255.198 655.258 -253.976 660.526 -258.585 655.258 -253.976 657.563 -261.972 653 -252 653 -252"/></g><g id="node26" class="node"><title>n0cc19</title><polygon style="fill:none;stroke:#000" points="970 -455 832 -455 832 -417 970 -417 970 -455"/><text x="843" y="-439.667" text-anchor="start" style="font-family:Nimbus Sans L;font-weight:regular;font-size:8.1pt;fill:#00f">A join between 2 targets</text><text x="843" y="-427.667" text-anchor="start" style="font-family:Nimbus Sans L;font-weight:regular;font-size:8.1pt;fill:#00f">in a SELECT statement</text></g><g id="edge16" class="edge"><title>n0cc19-&gt;c19</title><path style="fill:none;stroke:#000" d="M874,-417C855,-403 828,-385 805,-368"/></g><g id="node28" class="node"><title>c20</title><text x="713" y="-447.667" text-anchor="middle" style="font:arialbd;font-size:8.1pt">GdaSqlSelectFrom</text><polygon style="fill:none;stroke:#000" points="620 -442 620 -460 806 -460 806 -442 620 -442"/><text x="624" y="-429.667" text-anchor="start" style="font-family:Nimbus Sans L;font-weight:regular;font-size:8.1pt">~ targets : List&lt;GdaSqlSelectTarget&gt;</text><text x="624" y="-417.667" text-anchor="start" style="font-family:Nimbus Sans L;font-weight:regular;font-size:8.1pt">~ joins : List&lt;GdaSqlSelectJoin&gt;</text><polygon style="fill:none;stroke:#000" points="620 -412 620 -442 806 -442 806 -412 620 -412"/></g><g id="edge40" class="edge"><title>c20-&gt;c17</title><path style="fill:none;stroke:#000" d="M683,-412C667,-399 647,-383 630,-369"/><polygon style="fill:#000;stroke:#000" points="622 -362 632.489 -365.198 624.258 -363.976 629.526 -368.585 624.258 -363.976 626.563 -371.972 622 -362 622 -362"/></g><g id="edge42" class="edge"><title>c20-&gt;c19</title><path style="fill:none;stroke:#000" d="M723,-412C727,-402 732,-390 736,-378"/><polygon style="fill:#000;stroke:#000" points="740 -368 740.464 -378.956 738.886 -370.785 736.286 -377.285 738.886 -370.785 732.108 -375.613 740 -368 740 -368"/></g><g id="node29" class="node"><title>c21</title><text x="1015" y="-349.667" text-anchor="middle" style="font:arialbd;font-size:8.1pt">GdaSqlSelectOrder</text><polygon style="fill:none;stroke:#000" points="950 -344 950 -362 1080 -362 1080 -344 950 -344"/><text x="954" y="-331.667" text-anchor="start" style="font-family:Nimbus Sans L;font-weight:regular;font-size:8.1pt">~ expr : GdaSqlExpr</text><text x="954" y="-319.667" text-anchor="start" style="font-family:Nimbus Sans L;font-weight:regular;font-size:8.1pt">~ asc : gboolean</text><text x="954" y="-307.667" text-anchor="start" style="font-family:Nimbus Sans L;font-weight:regular;font-size:8.1pt">~ collation_name : String</text><polygon style="fill:none;stroke:#000" points="950 -302 950 -344 1080 -344 1080 -302 950 -302"/></g><g id="edge44" class="edge"><title>c21-&gt;c8</title><path style="fill:none;stroke:#000" d="M950,-316C919,-308 883,-300 850,-292 779,-275 758,-281 690,-256 687,-255 685,-254 682,-253"/><polygon style="fill:#000;stroke:#000" points="673 -249 683.966 -248.949 675.741 -250.218 682.138 -253.061 675.741 -250.218 680.31 -257.174 673 -249 673 -249"/></g><g id="node30" class="node"><title>n0cc21</title><polygon style="fill:none;stroke:#000" points="1126 -455 988 -455 988 -417 1126 -417 1126 -455"/><text x="999" y="-439.667" text-anchor="start" style="font-family:Nimbus Sans L;font-weight:regular;font-size:8.1pt;fill:#00f">ORDER BY clause</text><text x="999" y="-427.667" text-anchor="start" style="font-family:Nimbus Sans L;font-weight:regular;font-size:8.1pt;fill:#00f">in a SELECT statement</text></g><g id="edge18" class="edge"><title>n0cc21-&gt;c21</title><path style="fill:none;stroke:#000" d="M1049,-417C1043,-402 1034,-380 1027,-362"/></g></g></svg>