<svg xmlns="http://www.w3.org/2000/svg" xmlns:xlink="http://www.w3.org/1999/xlink" width="3.81in" height="9.01in"><g id="graph0" class="graph" transform="scale(1.33333 1.33333) rotate(0) translate(4 645)"><title>G</title><polygon style="fill:#fff;stroke:#fff" points="-4 4 -4 -645 271 -645 271 4 -4 4"/><text x="133" y="-7" text-anchor="middle" style="font-family:Nimbus Roman No9 L;font-weight:regular;font-size:11.34pt">a string;</text><g id="node1" class="node"><title>GdaSqlStatement</title><polygon style="fill:none;stroke:#000" points="156.802 -614.074 156.802 -629.926 117.67 -641.134 62.33 -641.134 23.198 -629.926 23.198 -614.074 62.33 -602.866 117.67 -602.866 156.802 -614.074"/><text x="90" y="-617" text-anchor="middle" style="font-family:Nimbus Roman No9 L;font-weight:regular;font-size:11.34pt">GdaSqlStatement</text></g><g id="node3" class="node"><title>node0x8ec4740</title><text x="90" y="-526.333" text-anchor="middle" style="font-family:Nimbus Roman No9 L;font-weight:regular;font-size:11.34pt">GdaSqlStatementUnknown</text><polygon style="fill:none;stroke:#000" points="8 -519 8 -543 172 -543 172 -519 8 -519"/></g><g id="edge2" class="edge"><title>GdaSqlStatement-&gt;node0x8ec4740</title><path style="fill:none;stroke:#000" d="M90,-603C90,-590 90,-574 90,-559"/><polygon style="fill:#000;stroke:#000" points="93.5 -559 90 -549 86.5 -559 93.5 -559"/><text x="113" y="-571" text-anchor="middle" style="font-family:Nimbus Roman No9 L;font-weight:regular;font-size:11.34pt">contents</text></g><g id="node7" class="node"><title>list0x8ec22b8</title><polygon style="fill:none;stroke:gray" points="63 -430.248 90 -415.149 117 -430.248 116.975 -454.678 63.025 -454.678 63 -430.248"/><text x="90" y="-432" text-anchor="middle" style="font-family:Nimbus Roman No9 L;font-weight:regular;font-size:11.34pt;fill:gray">N0</text></g><g id="edge6" class="edge"><title>node0x8ec4740-&gt;list0x8ec22b8</title><path style="fill:none;stroke:#000" d="M90,-513C90,-499 90,-481 90,-465"/><polygon style="fill:#000;stroke:#000" points="93.5 -465 90 -455 86.5 -465 93.5 -465"/><text x="122" y="-481" text-anchor="middle" style="font-family:Nimbus Roman No9 L;font-weight:regular;font-size:11.34pt">expressions</text></g><g id="node4" class="node"><title>node0x8ec4c58</title><text x="54" y="-340.333" text-anchor="middle" style="font-family:Nimbus Roman No9 L;font-weight:regular;font-size:11.34pt">GdaSqlExpr</text><polygon style="fill:none;stroke:#000" points="9 -332 9 -357 99 -357 99 -332 9 -332"/><text x="14" y="-315.333" text-anchor="start" style="font-family:Nimbus Roman No9 L;font-weight:regular;font-size:11.34pt">value=a</text><text x="14" y="-298.533" text-anchor="start" style="font-family:Nimbus Roman No9 L;font-weight:regular;font-size:11.34pt">cast_as=(null)</text><polygon style="fill:none;stroke:#000" points="9 -289 9 -332 99 -332 99 -289 9 -289"/></g><g id="node5" class="node"><title>node0x8ec4c18</title><text x="116" y="-210.333" text-anchor="middle" style="font-family:Nimbus Roman No9 L;font-weight:regular;font-size:11.34pt">GdaSqlExpr</text><polygon style="fill:none;stroke:#000" points="71 -202 71 -227 161 -227 161 -202 71 -202"/><text x="76" y="-185.333" text-anchor="start" style="font-family:Nimbus Roman No9 L;font-weight:regular;font-size:11.34pt">value=</text><text x="76" y="-168.533" text-anchor="start" style="font-family:Nimbus Roman No9 L;font-weight:regular;font-size:11.34pt">cast_as=(null)</text><polygon style="fill:none;stroke:#000" points="71 -159 71 -202 161 -202 161 -159 71 -159"/></g><g id="node6" class="node"><title>node0x8ec47c8</title><text x="214" y="-80.333" text-anchor="middle" style="font-family:Nimbus Roman No9 L;font-weight:regular;font-size:11.34pt">GdaSqlExpr</text><polygon style="fill:none;stroke:#000" points="169 -72 169 -97 259 -97 259 -72 169 -72"/><text x="174" y="-55.333" text-anchor="start" style="font-family:Nimbus Roman No9 L;font-weight:regular;font-size:11.34pt">value=string</text><text x="174" y="-38.533" text-anchor="start" style="font-family:Nimbus Roman No9 L;font-weight:regular;font-size:11.34pt">cast_as=(null)</text><polygon style="fill:none;stroke:#000" points="169 -29 169 -72 259 -72 259 -29 169 -29"/></g><g id="edge4" class="edge"><title>list0x8ec22b8-&gt;node0x8ec4c58</title><path style="fill:none;stroke:gray" d="M84,-418C80,-405 74,-387 69,-371"/><polygon style="fill:gray;stroke:gray" points="72.226 -369.573 66 -361 65.521 -371.584 72.226 -369.573"/><text x="87" y="-383" text-anchor="middle" style="font-family:Nimbus Roman No9 L;font-weight:regular;font-size:11.34pt;fill:gray">data</text></g><g id="node10" class="node"><title>list0x8ec22c0</title><polygon style="fill:none;stroke:gray" points="125 -316.248 152 -301.149 179 -316.248 178.975 -340.678 125.025 -340.678 125 -316.248"/><text x="152" y="-318" text-anchor="middle" style="font-family:Nimbus Roman No9 L;font-weight:regular;font-size:11.34pt;fill:gray">N1</text></g><g id="edge10" class="edge"><title>list0x8ec22b8-&gt;list0x8ec22c0</title><path style="fill:none;stroke:gray" d="M99,-420C109,-402 125,-372 137,-350"/><polygon style="fill:gray;stroke:gray" points="140.203 -351.441 142 -341 134.084 -348.042 140.203 -351.441"/><text x="132" y="-383" text-anchor="middle" style="font-family:Nimbus Roman No9 L;font-weight:regular;font-size:11.34pt;fill:gray">next</text></g><g id="edge8" class="edge"><title>list0x8ec22c0-&gt;node0x8ec4c18</title><path style="fill:none;stroke:gray" d="M147,-304C143,-288 135,-263 130,-241"/><polygon style="fill:gray;stroke:gray" points="133.226 -239.573 127 -231 126.521 -241.584 133.226 -239.573"/><text x="146" y="-253" text-anchor="middle" style="font-family:Nimbus Roman No9 L;font-weight:regular;font-size:11.34pt;fill:gray">data</text></g><g id="node13" class="node"><title>list0x8ec22c8</title><polygon style="fill:none;stroke:gray" points="187 -186.248 214 -171.149 241 -186.248 240.975 -210.678 187.025 -210.678 187 -186.248"/><text x="214" y="-188" text-anchor="middle" style="font-family:Nimbus Roman No9 L;font-weight:regular;font-size:11.34pt;fill:gray">N2</text></g><g id="edge14" class="edge"><title>list0x8ec22c0-&gt;list0x8ec22c8</title><path style="fill:none;stroke:gray" d="M160,-306C171,-284 189,-246 202,-220"/><polygon style="fill:gray;stroke:gray" points="205.137 -221.56 206 -211 198.74 -218.717 205.137 -221.56"/><text x="197" y="-253" text-anchor="middle" style="font-family:Nimbus Roman No9 L;font-weight:regular;font-size:11.34pt;fill:gray">next</text></g><g id="edge12" class="edge"><title>list0x8ec22c8-&gt;node0x8ec47c8</title><path style="fill:none;stroke:gray" d="M214,-171C214,-155 214,-132 214,-111"/><polygon style="fill:gray;stroke:gray" points="217.5 -111 214 -101 210.5 -111 217.5 -111"/><text x="225" y="-123" text-anchor="middle" style="font-family:Nimbus Roman No9 L;font-weight:regular;font-size:11.34pt;fill:gray">data</text></g></g></svg>