<svg xmlns="http://www.w3.org/2000/svg" xmlns:xlink="http://www.w3.org/1999/xlink" width="9.01in" height="9.73in"><g id="graph0" class="graph" transform="scale(1.33333 1.33333) rotate(0) translate(4 697)"><title>G</title><polygon style="fill:#fff;stroke:#fff" points="-4 4 -4 -697 645 -697 645 4 -4 4"/><text x="320" y="-7" text-anchor="middle" style="font-family:Nimbus Roman No9 L;font-weight:regular;font-size:11.34pt">update mytable set a=10, c=now() where c is not null;</text><g id="node1" class="node"><title>GdaSqlStatement</title><polygon style="fill:none;stroke:#000" points="330.802 -666.074 330.802 -681.926 291.67 -693.134 236.33 -693.134 197.198 -681.926 197.198 -666.074 236.33 -654.866 291.67 -654.866 330.802 -666.074"/><text x="264" y="-669" text-anchor="middle" style="font-family:Nimbus Roman No9 L;font-weight:regular;font-size:11.34pt">GdaSqlStatement</text></g><g id="node3" class="node"><title>node0x8dfc540</title><text x="264" y="-580.333" text-anchor="middle" style="font-family:Nimbus Roman No9 L;font-weight:regular;font-size:11.34pt">GdaSqlStatementUpdate</text><polygon style="fill:none;stroke:#000" points="190 -573 190 -597 338 -597 338 -573 190 -573"/><text x="212" y="-556.333" text-anchor="start" style="font-family:Nimbus Roman No9 L;font-weight:regular;font-size:11.34pt">on_conflict=(null)</text><polygon style="fill:none;stroke:#000" points="190 -549 190 -573 338 -573 338 -549 190 -549"/></g><g id="edge2" class="edge"><title>GdaSqlStatement-&gt;node0x8dfc540</title><path style="fill:none;stroke:#000" d="M264,-655C264,-643 264,-626 264,-611"/><polygon style="fill:#000;stroke:#000" points="267.5 -611 264 -601 260.5 -611 267.5 -611"/><text x="287" y="-623" text-anchor="middle" style="font-family:Nimbus Roman No9 L;font-weight:regular;font-size:11.34pt">contents</text></g><g id="node4" class="node"><title>node0x8dfc248</title><text x="72" y="-460.333" text-anchor="middle" style="font-family:Nimbus Roman No9 L;font-weight:regular;font-size:11.34pt">GdaSqlTable</text><polygon style="fill:none;stroke:#000" points="8 -453 8 -477 136 -477 136 -453 8 -453"/><text x="13" y="-436.333" text-anchor="start" style="font-family:Nimbus Roman No9 L;font-weight:regular;font-size:11.34pt">table_name=mytable</text><polygon style="fill:none;stroke:#000" points="8 -429 8 -453 136 -453 136 -429 8 -429"/></g><g id="edge12" class="edge"><title>node0x8dfc540-&gt;node0x8dfc248</title><path style="fill:none;stroke:#000" d="M219,-545C191,-528 155,-505 126,-486"/><polygon style="fill:#000;stroke:#000" points="127.441 -482.797 117 -481 124.042 -488.916 127.441 -482.797"/><text x="206" y="-513" text-anchor="middle" style="font-family:Nimbus Roman No9 L;font-weight:regular;font-size:11.34pt">table</text></g><g id="node16" class="node"><title>node0x8dfd568</title><text x="215" y="-470.333" text-anchor="middle" style="font-family:Nimbus Roman No9 L;font-weight:regular;font-size:11.34pt">GdaSqlExpr</text><polygon style="fill:none;stroke:#000" points="170 -462 170 -487 260 -487 260 -462 170 -462"/><text x="175" y="-445.333" text-anchor="start" style="font-family:Nimbus Roman No9 L;font-weight:regular;font-size:11.34pt">value=(null)</text><text x="175" y="-428.533" text-anchor="start" style="font-family:Nimbus Roman No9 L;font-weight:regular;font-size:11.34pt">cast_as=(null)</text><polygon style="fill:none;stroke:#000" points="170 -419 170 -462 260 -462 260 -419 170 -419"/></g><g id="edge30" class="edge"><title>node0x8dfc540-&gt;node0x8dfd568</title><path style="fill:none;stroke:#000" d="M253,-545C247,-532 241,-516 235,-500"/><polygon style="fill:#000;stroke:#000" points="238.26 -498.717 231 -491 231.863 -501.56 238.26 -498.717"/><text x="260" y="-513" text-anchor="middle" style="font-family:Nimbus Roman No9 L;font-weight:regular;font-size:11.34pt">cond</text></g><g id="node19" class="node"><title>list0x8df93d8</title><polygon style="fill:none;stroke:gray" points="286 -446.248 313 -431.149 340 -446.248 339.975 -470.678 286.025 -470.678 286 -446.248"/><text x="313" y="-448" text-anchor="middle" style="font-family:Nimbus Roman No9 L;font-weight:regular;font-size:11.34pt;fill:gray">N0</text></g><g id="edge16" class="edge"><title>node0x8dfc540-&gt;list0x8df93d8</title><path style="fill:none;stroke:#000" d="M275,-545C284,-525 294,-499 302,-480"/><polygon style="fill:#000;stroke:#000" points="305.137 -481.56 306 -471 298.74 -478.717 305.137 -481.56"/><text x="317" y="-513" text-anchor="middle" style="font-family:Nimbus Roman No9 L;font-weight:regular;font-size:11.34pt">fields_list</text></g><g id="node25" class="node"><title>list0x8df92a0</title><polygon style="fill:none;stroke:gray" points="445 -446.248 472 -431.149 499 -446.248 498.975 -470.678 445.025 -470.678 445 -446.248"/><text x="472" y="-448" text-anchor="middle" style="font-family:Nimbus Roman No9 L;font-weight:regular;font-size:11.34pt;fill:gray">N0</text></g><g id="edge24" class="edge"><title>node0x8dfc540-&gt;list0x8df92a0</title><path style="fill:none;stroke:#000" d="M317,-545C327,-539 338,-533 348,-527 377,-510 412,-490 436,-474"/><polygon style="fill:#000;stroke:#000" points="437.958 -476.916 445 -469 434.559 -470.797 437.958 -476.916"/><text x="400" y="-513" text-anchor="middle" style="font-family:Nimbus Roman No9 L;font-weight:regular;font-size:11.34pt">expr_list</text></g><g id="node5" class="node"><title>node0x8dfd2f8</title><text x="277" y="-330.333" text-anchor="middle" style="font-family:Nimbus Roman No9 L;font-weight:regular;font-size:11.34pt">GdaSqlField</text><polygon style="fill:none;stroke:#000" points="233 -323 233 -347 321 -347 321 -323 233 -323"/><text x="238" y="-306.333" text-anchor="start" style="font-family:Nimbus Roman No9 L;font-weight:regular;font-size:11.34pt">field_name=a</text><polygon style="fill:none;stroke:#000" points="233 -299 233 -323 321 -323 321 -299 233 -299"/></g><g id="node6" class="node"><title>node0x8dfa1b0</title><text x="374" y="-200.333" text-anchor="middle" style="font-family:Nimbus Roman No9 L;font-weight:regular;font-size:11.34pt">GdaSqlField</text><polygon style="fill:none;stroke:#000" points="330 -193 330 -217 418 -217 418 -193 330 -193"/><text x="335" y="-176.333" text-anchor="start" style="font-family:Nimbus Roman No9 L;font-weight:regular;font-size:11.34pt">field_name=c</text><polygon style="fill:none;stroke:#000" points="330 -169 330 -193 418 -193 418 -169 330 -169"/></g><g id="node7" class="node"><title>node0x8dfbf20</title><text x="472" y="-340.333" text-anchor="middle" style="font-family:Nimbus Roman No9 L;font-weight:regular;font-size:11.34pt">GdaSqlExpr</text><polygon style="fill:none;stroke:#000" points="427 -332 427 -357 517 -357 517 -332 427 -332"/><text x="432" y="-315.333" text-anchor="start" style="font-family:Nimbus Roman No9 L;font-weight:regular;font-size:11.34pt">value=10</text><text x="432" y="-298.533" text-anchor="start" style="font-family:Nimbus Roman No9 L;font-weight:regular;font-size:11.34pt">cast_as=(null)</text><polygon style="fill:none;stroke:#000" points="427 -289 427 -332 517 -332 517 -289 427 -289"/></g><g id="node8" class="node"><title>node0x8dfd5b8</title><text x="570" y="-70.333" text-anchor="middle" style="font-family:Nimbus Roman No9 L;font-weight:regular;font-size:11.34pt">GdaSqlFunction</text><polygon style="fill:none;stroke:#000" points="507 -63 507 -87 633 -87 633 -63 507 -63"/><text x="512" y="-46.333" text-anchor="start" style="font-family:Nimbus Roman No9 L;font-weight:regular;font-size:11.34pt">function_name=now</text><polygon style="fill:none;stroke:#000" points="507 -39 507 -63 633 -63 633 -39 507 -39"/></g><g id="node9" class="node"><title>node0x8dfbc88</title><text x="570" y="-210.333" text-anchor="middle" style="font-family:Nimbus Roman No9 L;font-weight:regular;font-size:11.34pt">GdaSqlExpr</text><polygon style="fill:none;stroke:#000" points="525 -202 525 -227 615 -227 615 -202 525 -202"/><text x="530" y="-185.333" text-anchor="start" style="font-family:Nimbus Roman No9 L;font-weight:regular;font-size:11.34pt">value=(null)</text><text x="530" y="-168.533" text-anchor="start" style="font-family:Nimbus Roman No9 L;font-weight:regular;font-size:11.34pt">cast_as=(null)</text><polygon style="fill:none;stroke:#000" points="525 -159 525 -202 615 -202 615 -159 525 -159"/></g><g id="edge4" class="edge"><title>node0x8dfbc88-&gt;node0x8dfd5b8</title><path style="fill:none;stroke:#000" d="M570,-155C570,-138 570,-118 570,-101"/><polygon style="fill:#000;stroke:#000" points="573.5 -101 570 -91 566.5 -101 573.5 -101"/><text x="582" y="-123" text-anchor="middle" style="font-family:Nimbus Roman No9 L;font-weight:regular;font-size:11.34pt">func</text></g><g id="node11" class="node"><title>node0x8dfd518</title><text x="122" y="-80.333" text-anchor="middle" style="font-family:Nimbus Roman No9 L;font-weight:regular;font-size:11.34pt">GdaSqlExpr</text><polygon style="fill:none;stroke:#000" points="77 -72 77 -97 167 -97 167 -72 77 -72"/><text x="82" y="-55.333" text-anchor="start" style="font-family:Nimbus Roman No9 L;font-weight:regular;font-size:11.34pt">value=c</text><text x="82" y="-38.533" text-anchor="start" style="font-family:Nimbus Roman No9 L;font-weight:regular;font-size:11.34pt">cast_as=(null)</text><polygon style="fill:none;stroke:#000" points="77 -29 77 -72 167 -72 167 -29 77 -29"/></g><g id="node12" class="node"><title>node0x8dfc700</title><text x="122" y="-330.333" text-anchor="middle" style="font-family:Nimbus Roman No9 L;font-weight:regular;font-size:11.34pt">GdaSqlOperation</text><polygon style="fill:none;stroke:#000" points="45 -323 45 -347 199 -347 199 -323 45 -323"/><text x="50" y="-306.333" text-anchor="start" style="font-family:Nimbus Roman No9 L;font-weight:regular;font-size:11.34pt">operator=IS NOT NULL</text><polygon style="fill:none;stroke:#000" points="45 -299 45 -323 199 -323 199 -299 45 -299"/></g><g id="node13" class="node"><title>list0x8df9380</title><polygon style="fill:none;stroke:gray" points="95 -186.248 122 -171.149 149 -186.248 148.975 -210.678 95.025 -210.678 95 -186.248"/><text x="122" y="-188" text-anchor="middle" style="font-family:Nimbus Roman No9 L;font-weight:regular;font-size:11.34pt;fill:gray">N0</text></g><g id="edge8" class="edge"><title>node0x8dfc700-&gt;list0x8df9380</title><path style="fill:none;stroke:#000" d="M122,-295C122,-274 122,-243 122,-221"/><polygon style="fill:#000;stroke:#000" points="125.5 -221 122 -211 118.5 -221 125.5 -221"/><text x="147" y="-253" text-anchor="middle" style="font-family:Nimbus Roman No9 L;font-weight:regular;font-size:11.34pt">operands</text></g><g id="edge6" class="edge"><title>list0x8df9380-&gt;node0x8dfd518</title><path style="fill:none;stroke:gray" d="M122,-171C122,-155 122,-132 122,-111"/><polygon style="fill:gray;stroke:gray" points="125.5 -111 122 -101 118.5 -111 125.5 -111"/><text x="134" y="-123" text-anchor="middle" style="font-family:Nimbus Roman No9 L;font-weight:regular;font-size:11.34pt;fill:gray">data</text></g><g id="edge10" class="edge"><title>node0x8dfd568-&gt;node0x8dfc700</title><path style="fill:none;stroke:#000" d="M188,-415C175,-397 160,-377 148,-359"/><polygon style="fill:#000;stroke:#000" points="150.8 -356.9 142 -351 145.2 -361.1 150.8 -356.9"/><text x="189" y="-383" text-anchor="middle" style="font-family:Nimbus Roman No9 L;font-weight:regular;font-size:11.34pt">cond</text></g><g id="edge14" class="edge"><title>list0x8df93d8-&gt;node0x8dfd2f8</title><path style="fill:none;stroke:gray" d="M308,-434C303,-415 294,-385 288,-361"/><polygon style="fill:gray;stroke:gray" points="291.226 -359.573 285 -351 284.521 -361.584 291.226 -359.573"/><text x="310" y="-383" text-anchor="middle" style="font-family:Nimbus Roman No9 L;font-weight:regular;font-size:11.34pt;fill:gray">data</text></g><g id="node22" class="node"><title>list0x8df9258</title><polygon style="fill:none;stroke:gray" points="347 -316.248 374 -301.149 401 -316.248 400.975 -340.678 347.025 -340.678 347 -316.248"/><text x="374" y="-318" text-anchor="middle" style="font-family:Nimbus Roman No9 L;font-weight:regular;font-size:11.34pt;fill:gray">N1</text></g><g id="edge20" class="edge"><title>list0x8df93d8-&gt;list0x8df9258</title><path style="fill:none;stroke:gray" d="M321,-435C332,-414 349,-376 362,-350"/><polygon style="fill:gray;stroke:gray" points="365.137 -351.56 366 -341 358.74 -348.717 365.137 -351.56"/><text x="360" y="-383" text-anchor="middle" style="font-family:Nimbus Roman No9 L;font-weight:regular;font-size:11.34pt;fill:gray">next</text></g><g id="edge18" class="edge"><title>list0x8df9258-&gt;node0x8dfa1b0</title><path style="fill:none;stroke:gray" d="M374,-301C374,-282 374,-254 374,-231"/><polygon style="fill:gray;stroke:gray" points="377.5 -231 374 -221 370.5 -231 377.5 -231"/><text x="386" y="-253" text-anchor="middle" style="font-family:Nimbus Roman No9 L;font-weight:regular;font-size:11.34pt;fill:gray">data</text></g><g id="edge22" class="edge"><title>list0x8df92a0-&gt;node0x8dfbf20</title><path style="fill:none;stroke:gray" d="M472,-431C472,-415 472,-392 472,-371"/><polygon style="fill:gray;stroke:gray" points="475.5 -371 472 -361 468.5 -371 475.5 -371"/><text x="483" y="-383" text-anchor="middle" style="font-family:Nimbus Roman No9 L;font-weight:regular;font-size:11.34pt;fill:gray">data</text></g><g id="node28" class="node"><title>list0x8df9358</title><polygon style="fill:none;stroke:gray" points="543 -316.248 570 -301.149 597 -316.248 596.975 -340.678 543.025 -340.678 543 -316.248"/><text x="570" y="-318" text-anchor="middle" style="font-family:Nimbus Roman No9 L;font-weight:regular;font-size:11.34pt;fill:gray">N1</text></g><g id="edge28" class="edge"><title>list0x8df92a0-&gt;list0x8df9358</title><path style="fill:none;stroke:gray" d="M484,-438C500,-415 530,-376 551,-349"/><polygon style="fill:gray;stroke:gray" points="553.8 -351.1 557 -341 548.2 -346.9 553.8 -351.1"/><text x="537" y="-383" text-anchor="middle" style="font-family:Nimbus Roman No9 L;font-weight:regular;font-size:11.34pt;fill:gray">next</text></g><g id="edge26" class="edge"><title>list0x8df9358-&gt;node0x8dfbc88</title><path style="fill:none;stroke:gray" d="M570,-301C570,-285 570,-262 570,-241"/><polygon style="fill:gray;stroke:gray" points="573.5 -241 570 -231 566.5 -241 573.5 -241"/><text x="581" y="-253" text-anchor="middle" style="font-family:Nimbus Roman No9 L;font-weight:regular;font-size:11.34pt;fill:gray">data</text></g></g></svg>