<svg xmlns="http://www.w3.org/2000/svg" xmlns:xlink="http://www.w3.org/1999/xlink" width="10.48in" height="12.73in"><g id="graph0" class="graph" transform="scale(1.33333 1.33333) rotate(0) translate(4 913)"><title>G</title><polygon style="fill:#fff;stroke:#fff" points="-4 4 -4 -913 751 -913 751 4 -4 4"/><text x="373" y="-7" text-anchor="middle" style="font-family:Nimbus Roman No9 L;font-weight:regular;font-size:11.34pt">insert into schema.mytable (a, b, c, d, e) select * from st;</text><g id="node1" class="node"><title>GdaSqlStatement</title><polygon style="fill:none;stroke:#000" points="351.802 -882.074 351.802 -897.926 312.67 -909.134 257.33 -909.134 218.198 -897.926 218.198 -882.074 257.33 -870.866 312.67 -870.866 351.802 -882.074"/><text x="285" y="-885" text-anchor="middle" style="font-family:Nimbus Roman No9 L;font-weight:regular;font-size:11.34pt">GdaSqlStatement</text></g><g id="node3" class="node"><title>node0x9c681a8</title><text x="285" y="-796.333" text-anchor="middle" style="font-family:Nimbus Roman No9 L;font-weight:regular;font-size:11.34pt">GdaSqlStatementInsert</text><polygon style="fill:none;stroke:#000" points="215 -789 215 -813 355 -813 355 -789 215 -789"/><text x="233" y="-772.333" text-anchor="start" style="font-family:Nimbus Roman No9 L;font-weight:regular;font-size:11.34pt">on_conflict=(null)</text><polygon style="fill:none;stroke:#000" points="215 -765 215 -789 355 -789 355 -765 215 -765"/></g><g id="edge2" class="edge"><title>GdaSqlStatement-&gt;node0x9c681a8</title><path style="fill:none;stroke:#000" d="M285,-871C285,-859 285,-842 285,-827"/><polygon style="fill:#000;stroke:#000" points="288.5 -827 285 -817 281.5 -827 288.5 -827"/><text x="308" y="-839" text-anchor="middle" style="font-family:Nimbus Roman No9 L;font-weight:regular;font-size:11.34pt">contents</text></g><g id="node4" class="node"><title>node0x9c680e0</title><text x="94" y="-686.333" text-anchor="middle" style="font-family:Nimbus Roman No9 L;font-weight:regular;font-size:11.34pt">GdaSqlTable</text><polygon style="fill:none;stroke:#000" points="8 -679 8 -703 180 -703 180 -679 8 -679"/><text x="13" y="-662.333" text-anchor="start" style="font-family:Nimbus Roman No9 L;font-weight:regular;font-size:11.34pt">table_name=schema.mytable</text><polygon style="fill:none;stroke:#000" points="8 -655 8 -679 180 -679 180 -655 8 -655"/></g><g id="edge18" class="edge"><title>node0x9c681a8-&gt;node0x9c680e0</title><path style="fill:none;stroke:#000" d="M236,-761C211,-746 179,-728 152,-712"/><polygon style="fill:#000;stroke:#000" points="153.441 -708.797 143 -707 150.042 -714.916 153.441 -708.797"/><text x="222" y="-729" text-anchor="middle" style="font-family:Nimbus Roman No9 L;font-weight:regular;font-size:11.34pt">table</text></g><g id="node20" class="node"><title>node0x9c68058</title><text x="285" y="-686.333" text-anchor="middle" style="font-family:Nimbus Roman No9 L;font-weight:regular;font-size:11.34pt">GdaSqlStatementSelect</text><polygon style="fill:none;stroke:#000" points="214 -679 214 -703 356 -703 356 -679 214 -679"/><text x="238" y="-662.333" text-anchor="start" style="font-family:Nimbus Roman No9 L;font-weight:regular;font-size:11.34pt">distinct=FALSE</text><polygon style="fill:none;stroke:#000" points="214 -655 214 -679 356 -679 356 -655 214 -655"/></g><g id="edge40" class="edge"><title>node0x9c681a8-&gt;node0x9c68058</title><path style="fill:none;stroke:#000" d="M285,-761C285,-747 285,-732 285,-717"/><polygon style="fill:#000;stroke:#000" points="288.5 -717 285 -707 281.5 -717 288.5 -717"/><text x="301" y="-729" text-anchor="middle" style="font-family:Nimbus Roman No9 L;font-weight:regular;font-size:11.34pt">select</text></g><g id="node26" class="node"><title>list0x9c65318</title><polygon style="fill:none;stroke:gray" points="382 -672.248 409 -657.149 436 -672.248 435.975 -696.678 382.025 -696.678 382 -672.248"/><text x="409" y="-674" text-anchor="middle" style="font-family:Nimbus Roman No9 L;font-weight:regular;font-size:11.34pt;fill:gray">N0</text></g><g id="edge22" class="edge"><title>node0x9c681a8-&gt;list0x9c65318</title><path style="fill:none;stroke:#000" d="M317,-761C336,-743 362,-720 381,-704"/><polygon style="fill:#000;stroke:#000" points="383.779 -706.219 389 -697 379.169 -700.951 383.779 -706.219"/><text x="380" y="-729" text-anchor="middle" style="font-family:Nimbus Roman No9 L;font-weight:regular;font-size:11.34pt">fields_list</text></g><g id="node5" class="node"><title>node0x9c67c50</title><text x="405" y="-576.333" text-anchor="middle" style="font-family:Nimbus Roman No9 L;font-weight:regular;font-size:11.34pt">GdaSqlField</text><polygon style="fill:none;stroke:#000" points="361 -569 361 -593 449 -593 449 -569 361 -569"/><text x="366" y="-552.333" text-anchor="start" style="font-family:Nimbus Roman No9 L;font-weight:regular;font-size:11.34pt">field_name=a</text><polygon style="fill:none;stroke:#000" points="361 -545 361 -569 449 -569 449 -545 361 -545"/></g><g id="node6" class="node"><title>node0x9c67e90</title><text x="476" y="-448.333" text-anchor="middle" style="font-family:Nimbus Roman No9 L;font-weight:regular;font-size:11.34pt">GdaSqlField</text><polygon style="fill:none;stroke:#000" points="432 -441 432 -465 520 -465 520 -441 432 -441"/><text x="437" y="-424.333" text-anchor="start" style="font-family:Nimbus Roman No9 L;font-weight:regular;font-size:11.34pt">field_name=b</text><polygon style="fill:none;stroke:#000" points="432 -417 432 -441 520 -441 520 -417 432 -417"/></g><g id="node7" class="node"><title>node0x9c67e38</title><text x="537" y="-310.333" text-anchor="middle" style="font-family:Nimbus Roman No9 L;font-weight:regular;font-size:11.34pt">GdaSqlField</text><polygon style="fill:none;stroke:#000" points="493 -303 493 -327 581 -327 581 -303 493 -303"/><text x="498" y="-286.333" text-anchor="start" style="font-family:Nimbus Roman No9 L;font-weight:regular;font-size:11.34pt">field_name=c</text><polygon style="fill:none;stroke:#000" points="493 -279 493 -303 581 -303 581 -279 493 -279"/></g><g id="node8" class="node"><title>node0x9c67db0</title><text x="598" y="-180.333" text-anchor="middle" style="font-family:Nimbus Roman No9 L;font-weight:regular;font-size:11.34pt">GdaSqlField</text><polygon style="fill:none;stroke:#000" points="554 -173 554 -197 642 -197 642 -173 554 -173"/><text x="559" y="-156.333" text-anchor="start" style="font-family:Nimbus Roman No9 L;font-weight:regular;font-size:11.34pt">field_name=d</text><polygon style="fill:none;stroke:#000" points="554 -149 554 -173 642 -173 642 -149 554 -149"/></g><g id="node9" class="node"><title>node0x9c68150</title><text x="695" y="-60.333" text-anchor="middle" style="font-family:Nimbus Roman No9 L;font-weight:regular;font-size:11.34pt">GdaSqlField</text><polygon style="fill:none;stroke:#000" points="651 -53 651 -77 739 -77 739 -53 651 -53"/><text x="656" y="-36.333" text-anchor="start" style="font-family:Nimbus Roman No9 L;font-weight:regular;font-size:11.34pt">field_name=e</text><polygon style="fill:none;stroke:#000" points="651 -29 651 -53 739 -53 739 -29 651 -29"/></g><g id="node10" class="node"><title>node0x9c67f70</title><text x="299" y="-320.333" text-anchor="middle" style="font-family:Nimbus Roman No9 L;font-weight:regular;font-size:11.34pt">GdaSqlExpr</text><polygon style="fill:none;stroke:#000" points="254 -312 254 -337 344 -337 344 -312 254 -312"/><text x="259" y="-295.333" text-anchor="start" style="font-family:Nimbus Roman No9 L;font-weight:regular;font-size:11.34pt">value=*</text><text x="259" y="-278.533" text-anchor="start" style="font-family:Nimbus Roman No9 L;font-weight:regular;font-size:11.34pt">cast_as=(null)</text><polygon style="fill:none;stroke:#000" points="254 -269 254 -312 344 -312 344 -269 254 -269"/></g><g id="node11" class="node"><title>node0x9c68090</title><text x="298" y="-466.333" text-anchor="middle" style="font-family:Nimbus Roman No9 L;font-weight:regular;font-size:11.34pt">GdaSqlSelectField</text><polygon style="fill:none;stroke:#000" points="240 -459 240 -483 356 -483 356 -459 240 -459"/><text x="246" y="-442.333" text-anchor="start" style="font-family:Nimbus Roman No9 L;font-weight:regular;font-size:11.34pt">field_name=(null)</text><text x="246" y="-425.533" text-anchor="start" style="font-family:Nimbus Roman No9 L;font-weight:regular;font-size:11.34pt">table_name=(null)</text><text x="246" y="-408.733" text-anchor="start" style="font-family:Nimbus Roman No9 L;font-weight:regular;font-size:11.34pt">as=(null)</text><polygon style="fill:none;stroke:#000" points="240 -399 240 -459 356 -459 356 -399 240 -399"/></g><g id="edge4" class="edge"><title>node0x9c68090-&gt;node0x9c67f70</title><path style="fill:none;stroke:#000" d="M298,-395C298,-381 299,-366 299,-351"/><polygon style="fill:#000;stroke:#000" points="302.5 -351 299 -341 295.5 -351 302.5 -351"/><text x="312" y="-363" text-anchor="middle" style="font-family:Nimbus Roman No9 L;font-weight:regular;font-size:11.34pt">expr</text></g><g id="node13" class="node"><title>node0x9c68e00</title><text x="158" y="-190.333" text-anchor="middle" style="font-family:Nimbus Roman No9 L;font-weight:regular;font-size:11.34pt">GdaSqlExpr</text><polygon style="fill:none;stroke:#000" points="113 -182 113 -207 203 -207 203 -182 113 -182"/><text x="118" y="-165.333" text-anchor="start" style="font-family:Nimbus Roman No9 L;font-weight:regular;font-size:11.34pt">value=st</text><text x="118" y="-148.533" text-anchor="start" style="font-family:Nimbus Roman No9 L;font-weight:regular;font-size:11.34pt">cast_as=(null)</text><polygon style="fill:none;stroke:#000" points="113 -139 113 -182 203 -182 203 -139 113 -139"/></g><g id="node14" class="node"><title>node0x9c67fc0</title><text x="158" y="-320.333" text-anchor="middle" style="font-family:Nimbus Roman No9 L;font-weight:regular;font-size:11.34pt">GdaSqlSelectTarget</text><polygon style="fill:none;stroke:#000" points="96 -312 96 -337 220 -337 220 -312 96 -312"/><text x="117" y="-295.333" text-anchor="start" style="font-family:Nimbus Roman No9 L;font-weight:regular;font-size:11.34pt">table_name=st</text><text x="117" y="-278.533" text-anchor="start" style="font-family:Nimbus Roman No9 L;font-weight:regular;font-size:11.34pt">as=(null)</text><polygon style="fill:none;stroke:#000" points="96 -269 96 -312 220 -312 220 -269 96 -269"/></g><g id="edge6" class="edge"><title>node0x9c67fc0-&gt;node0x9c68e00</title><path style="fill:none;stroke:#000" d="M158,-265C158,-251 158,-236 158,-221"/><polygon style="fill:#000;stroke:#000" points="161.5 -221 158 -211 154.5 -221 161.5 -221"/><text x="171" y="-233" text-anchor="middle" style="font-family:Nimbus Roman No9 L;font-weight:regular;font-size:11.34pt">expr</text></g><g id="node16" class="node"><title>node0x9c67fa8</title><text x="183" y="-564.333" text-anchor="middle" style="font-family:Nimbus Roman No9 L;font-weight:regular;font-size:11.34pt">GdaSqlSelectFrom</text><polygon style="fill:none;stroke:#000" points="124 -557 124 -581 242 -581 242 -557 124 -557"/></g><g id="node17" class="node"><title>list0x9c65348</title><polygon style="fill:none;stroke:gray" points="152 -434.248 179 -419.149 206 -434.248 205.975 -458.678 152.025 -458.678 152 -434.248"/><text x="179" y="-436" text-anchor="middle" style="font-family:Nimbus Roman No9 L;font-weight:regular;font-size:11.34pt;fill:gray">N0</text></g><g id="edge10" class="edge"><title>node0x9c67fa8-&gt;list0x9c65348</title><path style="fill:none;stroke:#000" d="M182,-551C181,-530 180,-494 179,-469"/><polygon style="fill:#000;stroke:#000" points="182.5 -469 179 -459 175.5 -469 182.5 -469"/><text x="202" y="-509" text-anchor="middle" style="font-family:Nimbus Roman No9 L;font-weight:regular;font-size:11.34pt">targets</text></g><g id="edge8" class="edge"><title>list0x9c65348-&gt;node0x9c67fc0</title><path style="fill:none;stroke:gray" d="M176,-421C173,-403 169,-375 166,-351"/><polygon style="fill:gray;stroke:gray" points="169.393 -350.119 164 -341 162.529 -351.492 169.393 -350.119"/><text x="182" y="-363" text-anchor="middle" style="font-family:Nimbus Roman No9 L;font-weight:regular;font-size:11.34pt;fill:gray">data</text></g><g id="edge16" class="edge"><title>node0x9c68058-&gt;node0x9c67fa8</title><path style="fill:none;stroke:#000" d="M259,-651C243,-634 223,-612 207,-595"/><polygon style="fill:#000;stroke:#000" points="209.219 -592.221 200 -587 203.951 -596.831 209.219 -592.221"/><text x="258" y="-619" text-anchor="middle" style="font-family:Nimbus Roman No9 L;font-weight:regular;font-size:11.34pt">from</text></g><g id="node21" class="node"><title>list0x9c65340</title><polygon style="fill:none;stroke:gray" points="268 -562.248 295 -547.149 322 -562.248 321.975 -586.678 268.025 -586.678 268 -562.248"/><text x="295" y="-564" text-anchor="middle" style="font-family:Nimbus Roman No9 L;font-weight:regular;font-size:11.34pt;fill:gray">N0</text></g><g id="edge14" class="edge"><title>node0x9c68058-&gt;list0x9c65340</title><path style="fill:none;stroke:#000" d="M288,-651C290,-635 291,-613 293,-597"/><polygon style="fill:#000;stroke:#000" points="296.488 -597.299 294 -587 289.522 -596.602 296.488 -597.299"/><text x="317" y="-619" text-anchor="middle" style="font-family:Nimbus Roman No9 L;font-weight:regular;font-size:11.34pt">expr_list</text></g><g id="edge12" class="edge"><title>list0x9c65340-&gt;node0x9c68090</title><path style="fill:none;stroke:gray" d="M296,-547C296,-534 296,-515 297,-497"/><polygon style="fill:gray;stroke:gray" points="300.5 -497 297 -487 293.5 -497 300.5 -497"/><text x="309" y="-509" text-anchor="middle" style="font-family:Nimbus Roman No9 L;font-weight:regular;font-size:11.34pt;fill:gray">data</text></g><g id="edge20" class="edge"><title>list0x9c65318-&gt;node0x9c67c50</title><path style="fill:none;stroke:gray" d="M408,-658C407,-644 407,-624 406,-607"/><polygon style="fill:gray;stroke:gray" points="409.5 -607 406 -597 402.5 -607 409.5 -607"/><text x="418" y="-619" text-anchor="middle" style="font-family:Nimbus Roman No9 L;font-weight:regular;font-size:11.34pt;fill:gray">data</text></g><g id="node29" class="node"><title>list0x9c65320</title><polygon style="fill:none;stroke:gray" points="475 -562.248 502 -547.149 529 -562.248 528.975 -586.678 475.025 -586.678 475 -562.248"/><text x="502" y="-564" text-anchor="middle" style="font-family:Nimbus Roman No9 L;font-weight:regular;font-size:11.34pt;fill:gray">N1</text></g><g id="edge26" class="edge"><title>list0x9c65318-&gt;list0x9c65320</title><path style="fill:none;stroke:gray" d="M422,-664C437,-645 462,-616 480,-595"/><polygon style="fill:gray;stroke:gray" points="483.049 -596.831 487 -587 477.781 -592.221 483.049 -596.831"/><text x="472" y="-619" text-anchor="middle" style="font-family:Nimbus Roman No9 L;font-weight:regular;font-size:11.34pt;fill:gray">next</text></g><g id="edge24" class="edge"><title>list0x9c65320-&gt;node0x9c67e90</title><path style="fill:none;stroke:gray" d="M493,-552C489,-543 484,-533 482,-523 479,-509 477,-493 476,-479"/><polygon style="fill:gray;stroke:gray" points="479.5 -479 476 -469 472.5 -479 479.5 -479"/><text x="493" y="-509" text-anchor="middle" style="font-family:Nimbus Roman No9 L;font-weight:regular;font-size:11.34pt;fill:gray">data</text></g><g id="node32" class="node"><title>list0x9c65328</title><polygon style="fill:none;stroke:gray" points="546 -434.248 573 -419.149 600 -434.248 599.975 -458.678 546.025 -458.678 546 -434.248"/><text x="573" y="-436" text-anchor="middle" style="font-family:Nimbus Roman No9 L;font-weight:regular;font-size:11.34pt;fill:gray">N2</text></g><g id="edge30" class="edge"><title>list0x9c65320-&gt;list0x9c65328</title><path style="fill:none;stroke:gray" d="M511,-552C523,-531 544,-493 558,-468"/><polygon style="fill:gray;stroke:gray" points="561.203 -469.441 563 -459 555.084 -466.042 561.203 -469.441"/><text x="549" y="-509" text-anchor="middle" style="font-family:Nimbus Roman No9 L;font-weight:regular;font-size:11.34pt;fill:gray">next</text></g><g id="edge28" class="edge"><title>list0x9c65328-&gt;node0x9c67e38</title><path style="fill:none;stroke:gray" d="M568,-422C563,-401 554,-367 547,-341"/><polygon style="fill:gray;stroke:gray" points="550.226 -339.573 544 -331 543.521 -341.584 550.226 -339.573"/><text x="566" y="-363" text-anchor="middle" style="font-family:Nimbus Roman No9 L;font-weight:regular;font-size:11.34pt;fill:gray">data</text></g><g id="node35" class="node"><title>list0x9c65330</title><polygon style="fill:none;stroke:gray" points="607 -296.248 634 -281.149 661 -296.248 660.975 -320.678 607.025 -320.678 607 -296.248"/><text x="634" y="-298" text-anchor="middle" style="font-family:Nimbus Roman No9 L;font-weight:regular;font-size:11.34pt;fill:gray">N3</text></g><g id="edge34" class="edge"><title>list0x9c65328-&gt;list0x9c65330</title><path style="fill:none;stroke:gray" d="M581,-423C591,-400 609,-358 622,-330"/><polygon style="fill:gray;stroke:gray" points="625.137 -331.56 626 -321 618.74 -328.717 625.137 -331.56"/><text x="618" y="-363" text-anchor="middle" style="font-family:Nimbus Roman No9 L;font-weight:regular;font-size:11.34pt;fill:gray">next</text></g><g id="edge32" class="edge"><title>list0x9c65330-&gt;node0x9c67db0</title><path style="fill:none;stroke:gray" d="M629,-284C624,-265 615,-235 609,-211"/><polygon style="fill:gray;stroke:gray" points="612.226 -209.573 606 -201 605.521 -211.584 612.226 -209.573"/><text x="628" y="-233" text-anchor="middle" style="font-family:Nimbus Roman No9 L;font-weight:regular;font-size:11.34pt;fill:gray">data</text></g><g id="node38" class="node"><title>list0x9c65338</title><polygon style="fill:none;stroke:gray" points="668 -166.248 695 -151.149 722 -166.248 721.975 -190.678 668.025 -190.678 668 -166.248"/><text x="695" y="-168" text-anchor="middle" style="font-family:Nimbus Roman No9 L;font-weight:regular;font-size:11.34pt;fill:gray">N4</text></g><g id="edge38" class="edge"><title>list0x9c65330-&gt;list0x9c65338</title><path style="fill:none;stroke:gray" d="M642,-285C653,-264 670,-226 683,-200"/><polygon style="fill:gray;stroke:gray" points="686.137 -201.56 687 -191 679.74 -198.717 686.137 -201.56"/><text x="679" y="-233" text-anchor="middle" style="font-family:Nimbus Roman No9 L;font-weight:regular;font-size:11.34pt;fill:gray">next</text></g><g id="edge36" class="edge"><title>list0x9c65338-&gt;node0x9c68150</title><path style="fill:none;stroke:gray" d="M695,-151C695,-134 695,-111 695,-91"/><polygon style="fill:gray;stroke:gray" points="698.5 -91 695 -81 691.5 -91 698.5 -91"/><text x="706" y="-103" text-anchor="middle" style="font-family:Nimbus Roman No9 L;font-weight:regular;font-size:11.34pt;fill:gray">data</text></g></g></svg>