<svg xmlns="http://www.w3.org/2000/svg" xmlns:xlink="http://www.w3.org/1999/xlink" width="10.76in" height="11.98in"><g id="graph0" class="graph" transform="scale(1.33333 1.33333) rotate(0) translate(4 859)"><title>G</title><polygon style="fill:#fff;stroke:#fff" points="-4 4 -4 -859 771 -859 771 4 -4 4"/><text x="383" y="-7" text-anchor="middle" style="font-family:Nimbus Roman No9 L;font-weight:regular;font-size:11.34pt">select t1.id, t2.name from t1 as A left join t2 as B where id&lt;=100</text><g id="node1" class="node"><title>GdaSqlStatement</title><polygon style="fill:none;stroke:#000" points="490.802 -828.074 490.802 -843.926 451.67 -855.134 396.33 -855.134 357.198 -843.926 357.198 -828.074 396.33 -816.866 451.67 -816.866 490.802 -828.074"/><text x="424" y="-831" text-anchor="middle" style="font-family:Nimbus Roman No9 L;font-weight:regular;font-size:11.34pt">GdaSqlStatement</text></g><g id="node3" class="node"><title>node0x8dfc080</title><text x="424" y="-742.333" text-anchor="middle" style="font-family:Nimbus Roman No9 L;font-weight:regular;font-size:11.34pt">GdaSqlStatementSelect</text><polygon style="fill:none;stroke:#000" points="353 -735 353 -759 495 -759 495 -735 353 -735"/><text x="377" y="-718.333" text-anchor="start" style="font-family:Nimbus Roman No9 L;font-weight:regular;font-size:11.34pt">distinct=FALSE</text><polygon style="fill:none;stroke:#000" points="353 -711 353 -735 495 -735 495 -711 353 -711"/></g><g id="edge2" class="edge"><title>GdaSqlStatement-&gt;node0x8dfc080</title><path style="fill:none;stroke:#000" d="M424,-817C424,-805 424,-788 424,-773"/><polygon style="fill:#000;stroke:#000" points="427.5 -773 424 -763 420.5 -773 427.5 -773"/><text x="447" y="-785" text-anchor="middle" style="font-family:Nimbus Roman No9 L;font-weight:regular;font-size:11.34pt">contents</text></g><g id="node17" class="node"><title>node0x8dfbc88</title><text x="286" y="-610.333" text-anchor="middle" style="font-family:Nimbus Roman No9 L;font-weight:regular;font-size:11.34pt">GdaSqlSelectFrom</text><polygon style="fill:none;stroke:#000" points="227 -603 227 -627 345 -627 345 -603 227 -603"/></g><g id="edge42" class="edge"><title>node0x8dfc080-&gt;node0x8dfbc88</title><path style="fill:none;stroke:#000" d="M392,-707C369,-686 337,-659 315,-640"/><polygon style="fill:#000;stroke:#000" points="316.831 -636.951 307 -633 312.221 -642.219 316.831 -636.951"/><text x="387" y="-675" text-anchor="middle" style="font-family:Nimbus Roman No9 L;font-weight:regular;font-size:11.34pt">from</text></g><g id="node36" class="node"><title>node0x8dfc2e0</title><text x="424" y="-632.333" text-anchor="middle" style="font-family:Nimbus Roman No9 L;font-weight:regular;font-size:11.34pt">GdaSqlExpr</text><polygon style="fill:none;stroke:#000" points="379 -624 379 -649 469 -649 469 -624 379 -624"/><text x="384" y="-607.333" text-anchor="start" style="font-family:Nimbus Roman No9 L;font-weight:regular;font-size:11.34pt">value=(null)</text><text x="384" y="-590.533" text-anchor="start" style="font-family:Nimbus Roman No9 L;font-weight:regular;font-size:11.34pt">cast_as=(null)</text><polygon style="fill:none;stroke:#000" points="379 -581 379 -624 469 -624 469 -581 379 -581"/></g><g id="edge44" class="edge"><title>node0x8dfc080-&gt;node0x8dfc2e0</title><path style="fill:none;stroke:#000" d="M424,-707C424,-694 424,-678 424,-663"/><polygon style="fill:#000;stroke:#000" points="427.5 -663 424 -653 420.5 -663 427.5 -663"/><text x="458" y="-675" text-anchor="middle" style="font-family:Nimbus Roman No9 L;font-weight:regular;font-size:11.34pt">where_cond</text></g><g id="node38" class="node"><title>list0x8df9328</title><polygon style="fill:none;stroke:gray" points="541 -608.248 568 -593.149 595 -608.248 594.975 -632.678 541.025 -632.678 541 -608.248"/><text x="568" y="-610" text-anchor="middle" style="font-family:Nimbus Roman No9 L;font-weight:regular;font-size:11.34pt;fill:gray">N0</text></g><g id="edge36" class="edge"><title>node0x8dfc080-&gt;list0x8df9328</title><path style="fill:none;stroke:#000" d="M471,-707C480,-701 488,-695 496,-689 515,-675 533,-656 546,-641"/><polygon style="fill:#000;stroke:#000" points="549.049 -642.831 553 -633 543.781 -638.221 549.049 -642.831"/><text x="542" y="-675" text-anchor="middle" style="font-family:Nimbus Roman No9 L;font-weight:regular;font-size:11.34pt">expr_list</text></g><g id="node4" class="node"><title>node0x8dfc5d0</title><text x="564" y="-348.333" text-anchor="middle" style="font-family:Nimbus Roman No9 L;font-weight:regular;font-size:11.34pt">GdaSqlExpr</text><polygon style="fill:none;stroke:#000" points="519 -340 519 -365 609 -365 609 -340 519 -340"/><text x="524" y="-323.333" text-anchor="start" style="font-family:Nimbus Roman No9 L;font-weight:regular;font-size:11.34pt">value=t1.id</text><text x="524" y="-306.533" text-anchor="start" style="font-family:Nimbus Roman No9 L;font-weight:regular;font-size:11.34pt">cast_as=(null)</text><polygon style="fill:none;stroke:#000" points="519 -297 519 -340 609 -340 609 -297 519 -297"/></g><g id="node5" class="node"><title>node0x8dfbec8</title><text x="568" y="-502.333" text-anchor="middle" style="font-family:Nimbus Roman No9 L;font-weight:regular;font-size:11.34pt">GdaSqlSelectField</text><polygon style="fill:none;stroke:#000" points="510 -495 510 -519 626 -519 626 -495 510 -495"/><text x="526" y="-478.333" text-anchor="start" style="font-family:Nimbus Roman No9 L;font-weight:regular;font-size:11.34pt">field_name=id</text><text x="526" y="-461.533" text-anchor="start" style="font-family:Nimbus Roman No9 L;font-weight:regular;font-size:11.34pt">table_name=t1</text><text x="526" y="-444.733" text-anchor="start" style="font-family:Nimbus Roman No9 L;font-weight:regular;font-size:11.34pt">as=(null)</text><polygon style="fill:none;stroke:#000" points="510 -435 510 -495 626 -495 626 -435 510 -435"/></g><g id="edge4" class="edge"><title>node0x8dfbec8-&gt;node0x8dfc5d0</title><path style="fill:none;stroke:#000" d="M567,-431C567,-414 566,-396 566,-379"/><polygon style="fill:#000;stroke:#000" points="569.478 -378.602 565 -369 562.512 -379.299 569.478 -378.602"/><text x="581" y="-399" text-anchor="middle" style="font-family:Nimbus Roman No9 L;font-weight:regular;font-size:11.34pt">expr</text></g><g id="node7" class="node"><title>node0x8dfc298</title><text x="701" y="-210.333" text-anchor="middle" style="font-family:Nimbus Roman No9 L;font-weight:regular;font-size:11.34pt">GdaSqlExpr</text><polygon style="fill:none;stroke:#000" points="654 -202 654 -227 748 -227 748 -202 654 -202"/><text x="659" y="-185.333" text-anchor="start" style="font-family:Nimbus Roman No9 L;font-weight:regular;font-size:11.34pt">value=t2.name</text><text x="659" y="-168.533" text-anchor="start" style="font-family:Nimbus Roman No9 L;font-weight:regular;font-size:11.34pt">cast_as=(null)</text><polygon style="fill:none;stroke:#000" points="654 -159 654 -202 748 -202 748 -159 654 -159"/></g><g id="node8" class="node"><title>node0x8dfc0f8</title><text x="701" y="-356.333" text-anchor="middle" style="font-family:Nimbus Roman No9 L;font-weight:regular;font-size:11.34pt">GdaSqlSelectField</text><polygon style="fill:none;stroke:#000" points="643 -349 643 -373 759 -373 759 -349 643 -349"/><text x="650" y="-332.333" text-anchor="start" style="font-family:Nimbus Roman No9 L;font-weight:regular;font-size:11.34pt">field_name=name</text><text x="650" y="-315.533" text-anchor="start" style="font-family:Nimbus Roman No9 L;font-weight:regular;font-size:11.34pt">table_name=t2</text><text x="650" y="-298.733" text-anchor="start" style="font-family:Nimbus Roman No9 L;font-weight:regular;font-size:11.34pt">as=(null)</text><polygon style="fill:none;stroke:#000" points="643 -289 643 -349 759 -349 759 -289 643 -289"/></g><g id="edge6" class="edge"><title>node0x8dfc0f8-&gt;node0x8dfc298</title><path style="fill:none;stroke:#000" d="M701,-285C701,-271 701,-256 701,-241"/><polygon style="fill:#000;stroke:#000" points="704.5 -241 701 -231 697.5 -241 704.5 -241"/><text x="713" y="-253" text-anchor="middle" style="font-family:Nimbus Roman No9 L;font-weight:regular;font-size:11.34pt">expr</text></g><g id="node10" class="node"><title>node0x8dfd2a0</title><text x="57" y="-210.333" text-anchor="middle" style="font-family:Nimbus Roman No9 L;font-weight:regular;font-size:11.34pt">GdaSqlExpr</text><polygon style="fill:none;stroke:#000" points="12 -202 12 -227 102 -227 102 -202 12 -202"/><text x="17" y="-185.333" text-anchor="start" style="font-family:Nimbus Roman No9 L;font-weight:regular;font-size:11.34pt">value=t1</text><text x="17" y="-168.533" text-anchor="start" style="font-family:Nimbus Roman No9 L;font-weight:regular;font-size:11.34pt">cast_as=(null)</text><polygon style="fill:none;stroke:#000" points="12 -159 12 -202 102 -202 102 -159 12 -159"/></g><g id="node11" class="node"><title>node0x8dfd278</title><text x="70" y="-348.333" text-anchor="middle" style="font-family:Nimbus Roman No9 L;font-weight:regular;font-size:11.34pt">GdaSqlSelectTarget</text><polygon style="fill:none;stroke:#000" points="8 -340 8 -365 132 -365 132 -340 8 -340"/><text x="28" y="-323.333" text-anchor="start" style="font-family:Nimbus Roman No9 L;font-weight:regular;font-size:11.34pt">table_name=t1</text><text x="28" y="-306.533" text-anchor="start" style="font-family:Nimbus Roman No9 L;font-weight:regular;font-size:11.34pt">as=A</text><polygon style="fill:none;stroke:#000" points="8 -297 8 -340 132 -340 132 -297 8 -297"/></g><g id="edge8" class="edge"><title>node0x8dfd278-&gt;node0x8dfd2a0</title><path style="fill:none;stroke:#000" d="M66,-293C65,-277 64,-258 62,-241"/><polygon style="fill:#000;stroke:#000" points="65.478 -240.602 61 -231 58.513 -241.299 65.478 -240.602"/><text x="78" y="-253" text-anchor="middle" style="font-family:Nimbus Roman No9 L;font-weight:regular;font-size:11.34pt">expr</text></g><g id="node13" class="node"><title>node0x8dfd608</title><text x="198" y="-80.333" text-anchor="middle" style="font-family:Nimbus Roman No9 L;font-weight:regular;font-size:11.34pt">GdaSqlExpr</text><polygon style="fill:none;stroke:#000" points="153 -72 153 -97 243 -97 243 -72 153 -72"/><text x="158" y="-55.333" text-anchor="start" style="font-family:Nimbus Roman No9 L;font-weight:regular;font-size:11.34pt">value=t2</text><text x="158" y="-38.533" text-anchor="start" style="font-family:Nimbus Roman No9 L;font-weight:regular;font-size:11.34pt">cast_as=(null)</text><polygon style="fill:none;stroke:#000" points="153 -29 153 -72 243 -72 243 -29 153 -29"/></g><g id="node14" class="node"><title>node0x8dfd5e0</title><text x="198" y="-210.333" text-anchor="middle" style="font-family:Nimbus Roman No9 L;font-weight:regular;font-size:11.34pt">GdaSqlSelectTarget</text><polygon style="fill:none;stroke:#000" points="136 -202 136 -227 260 -227 260 -202 136 -202"/><text x="156" y="-185.333" text-anchor="start" style="font-family:Nimbus Roman No9 L;font-weight:regular;font-size:11.34pt">table_name=t2</text><text x="156" y="-168.533" text-anchor="start" style="font-family:Nimbus Roman No9 L;font-weight:regular;font-size:11.34pt">as=B</text><polygon style="fill:none;stroke:#000" points="136 -159 136 -202 260 -202 260 -159 136 -159"/></g><g id="edge10" class="edge"><title>node0x8dfd5e0-&gt;node0x8dfd608</title><path style="fill:none;stroke:#000" d="M198,-155C198,-141 198,-126 198,-111"/><polygon style="fill:#000;stroke:#000" points="201.5 -111 198 -101 194.5 -111 201.5 -111"/><text x="211" y="-123" text-anchor="middle" style="font-family:Nimbus Roman No9 L;font-weight:regular;font-size:11.34pt">expr</text></g><g id="node16" class="node"><title>node0x8dfc010</title><text x="299" y="-348.333" text-anchor="middle" style="font-family:Nimbus Roman No9 L;font-weight:regular;font-size:11.34pt">GdaSqlSelectJoin</text><polygon style="fill:none;stroke:#000" points="244 -340 244 -365 354 -365 354 -340 244 -340"/><text x="251" y="-323.333" text-anchor="start" style="font-family:Nimbus Roman No9 L;font-weight:regular;font-size:11.34pt">join_type=LEFT</text><text x="251" y="-306.533" text-anchor="start" style="font-family:Nimbus Roman No9 L;font-weight:regular;font-size:11.34pt">position=1</text><polygon style="fill:none;stroke:#000" points="244 -297 244 -340 354 -340 354 -297 244 -297"/></g><g id="node18" class="node"><title>list0x8df9330</title><polygon style="fill:none;stroke:gray" points="164 -470.248 191 -455.149 218 -470.248 217.975 -494.678 164.025 -494.678 164 -470.248"/><text x="191" y="-472" text-anchor="middle" style="font-family:Nimbus Roman No9 L;font-weight:regular;font-size:11.34pt;fill:gray">N0</text></g><g id="edge14" class="edge"><title>node0x8dfbc88-&gt;list0x8df9330</title><path style="fill:none;stroke:#000" d="M274,-597C258,-574 228,-531 209,-503"/><polygon style="fill:#000;stroke:#000" points="211.8 -500.9 203 -495 206.2 -505.1 211.8 -500.9"/><text x="267" y="-545" text-anchor="middle" style="font-family:Nimbus Roman No9 L;font-weight:regular;font-size:11.34pt">targets</text></g><g id="node24" class="node"><title>list0x8df9220</title><polygon style="fill:none;stroke:gray" points="265 -470.248 292 -455.149 319 -470.248 318.975 -494.678 265.025 -494.678 265 -470.248"/><text x="292" y="-472" text-anchor="middle" style="font-family:Nimbus Roman No9 L;font-weight:regular;font-size:11.34pt;fill:gray">N0</text></g><g id="edge22" class="edge"><title>node0x8dfbc88-&gt;list0x8df9220</title><path style="fill:none;stroke:#000" d="M287,-597C288,-574 290,-532 291,-505"/><polygon style="fill:#000;stroke:#000" points="294.5 -505 291 -495 287.5 -505 294.5 -505"/><text x="305" y="-545" text-anchor="middle" style="font-family:Nimbus Roman No9 L;font-weight:regular;font-size:11.34pt">joins</text></g><g id="edge12" class="edge"><title>list0x8df9330-&gt;node0x8dfd278</title><path style="fill:none;stroke:gray" d="M179,-462C162,-442 132,-406 108,-377"/><polygon style="fill:gray;stroke:gray" points="110.8 -374.9 102 -369 105.2 -379.1 110.8 -374.9"/><text x="151" y="-399" text-anchor="middle" style="font-family:Nimbus Roman No9 L;font-weight:regular;font-size:11.34pt;fill:gray">data</text></g><g id="node21" class="node"><title>list0x8df9218</title><polygon style="fill:none;stroke:gray" points="164 -324.248 191 -309.149 218 -324.248 217.975 -348.678 164.025 -348.678 164 -324.248"/><text x="191" y="-326" text-anchor="middle" style="font-family:Nimbus Roman No9 L;font-weight:regular;font-size:11.34pt;fill:gray">N1</text></g><g id="edge18" class="edge"><title>list0x8df9330-&gt;list0x8df9218</title><path style="fill:none;stroke:gray" d="M191,-455C191,-429 191,-387 191,-359"/><polygon style="fill:gray;stroke:gray" points="194.5 -359 191 -349 187.5 -359 194.5 -359"/><text x="203" y="-399" text-anchor="middle" style="font-family:Nimbus Roman No9 L;font-weight:regular;font-size:11.34pt;fill:gray">next</text></g><g id="edge16" class="edge"><title>list0x8df9218-&gt;node0x8dfd5e0</title><path style="fill:none;stroke:gray" d="M192,-310C193,-292 195,-265 196,-241"/><polygon style="fill:gray;stroke:gray" points="199.5 -241 196 -231 192.5 -241 199.5 -241"/><text x="208" y="-253" text-anchor="middle" style="font-family:Nimbus Roman No9 L;font-weight:regular;font-size:11.34pt;fill:gray">data</text></g><g id="edge20" class="edge"><title>list0x8df9220-&gt;node0x8dfc010</title><path style="fill:none;stroke:gray" d="M293,-455C294,-436 296,-405 297,-379"/><polygon style="fill:gray;stroke:gray" points="300.5 -379 297 -369 293.5 -379 300.5 -379"/><text x="309" y="-399" text-anchor="middle" style="font-family:Nimbus Roman No9 L;font-weight:regular;font-size:11.34pt;fill:gray">data</text></g><g id="node27" class="node"><title>node0x8dfc320</title><text x="357" y="-210.333" text-anchor="middle" style="font-family:Nimbus Roman No9 L;font-weight:regular;font-size:11.34pt">GdaSqlExpr</text><polygon style="fill:none;stroke:#000" points="312 -202 312 -227 402 -227 402 -202 312 -202"/><text x="317" y="-185.333" text-anchor="start" style="font-family:Nimbus Roman No9 L;font-weight:regular;font-size:11.34pt">value=id</text><text x="317" y="-168.533" text-anchor="start" style="font-family:Nimbus Roman No9 L;font-weight:regular;font-size:11.34pt">cast_as=(null)</text><polygon style="fill:none;stroke:#000" points="312 -159 312 -202 402 -202 402 -159 312 -159"/></g><g id="node28" class="node"><title>node0x8dfdb00</title><text x="455" y="-80.333" text-anchor="middle" style="font-family:Nimbus Roman No9 L;font-weight:regular;font-size:11.34pt">GdaSqlExpr</text><polygon style="fill:none;stroke:#000" points="410 -72 410 -97 500 -97 500 -72 410 -72"/><text x="415" y="-55.333" text-anchor="start" style="font-family:Nimbus Roman No9 L;font-weight:regular;font-size:11.34pt">value=100</text><text x="415" y="-38.533" text-anchor="start" style="font-family:Nimbus Roman No9 L;font-weight:regular;font-size:11.34pt">cast_as=(null)</text><polygon style="fill:none;stroke:#000" points="410 -29 410 -72 500 -72 500 -29 410 -29"/></g><g id="node29" class="node"><title>node0x8dfc308</title><text x="422" y="-484.333" text-anchor="middle" style="font-family:Nimbus Roman No9 L;font-weight:regular;font-size:11.34pt">GdaSqlOperation</text><polygon style="fill:none;stroke:#000" points="368 -477 368 -501 476 -501 476 -477 368 -477"/><text x="390" y="-460.333" text-anchor="start" style="font-family:Nimbus Roman No9 L;font-weight:regular;font-size:11.34pt">operator=&lt;</text><polygon style="fill:none;stroke:#000" points="368 -453 368 -477 476 -477 476 -453 368 -453"/></g><g id="node30" class="node"><title>list0x8df9230</title><polygon style="fill:none;stroke:gray" points="395 -324.248 422 -309.149 449 -324.248 448.975 -348.678 395.025 -348.678 395 -324.248"/><text x="422" y="-326" text-anchor="middle" style="font-family:Nimbus Roman No9 L;font-weight:regular;font-size:11.34pt;fill:gray">N0</text></g><g id="edge26" class="edge"><title>node0x8dfc308-&gt;list0x8df9230</title><path style="fill:none;stroke:#000" d="M422,-449C422,-423 422,-385 422,-359"/><polygon style="fill:#000;stroke:#000" points="425.5 -359 422 -349 418.5 -359 425.5 -359"/><text x="447" y="-399" text-anchor="middle" style="font-family:Nimbus Roman No9 L;font-weight:regular;font-size:11.34pt">operands</text></g><g id="edge24" class="edge"><title>list0x8df9230-&gt;node0x8dfc320</title><path style="fill:none;stroke:gray" d="M414,-314C405,-295 391,-265 379,-240"/><polygon style="fill:gray;stroke:gray" points="382.26 -238.717 375 -231 375.863 -241.56 382.26 -238.717"/><text x="405" y="-253" text-anchor="middle" style="font-family:Nimbus Roman No9 L;font-weight:regular;font-size:11.34pt;fill:gray">data</text></g><g id="node33" class="node"><title>list0x8df9238</title><polygon style="fill:none;stroke:gray" points="428 -186.248 455 -171.149 482 -186.248 481.975 -210.678 428.025 -210.678 428 -186.248"/><text x="455" y="-188" text-anchor="middle" style="font-family:Nimbus Roman No9 L;font-weight:regular;font-size:11.34pt;fill:gray">N1</text></g><g id="edge30" class="edge"><title>list0x8df9230-&gt;list0x8df9238</title><path style="fill:none;stroke:gray" d="M427,-312C432,-288 442,-248 449,-221"/><polygon style="fill:gray;stroke:gray" points="452.471 -221.492 451 -211 445.607 -220.119 452.471 -221.492"/><text x="454" y="-253" text-anchor="middle" style="font-family:Nimbus Roman No9 L;font-weight:regular;font-size:11.34pt;fill:gray">next</text></g><g id="edge28" class="edge"><title>list0x8df9238-&gt;node0x8dfdb00</title><path style="fill:none;stroke:gray" d="M455,-171C455,-155 455,-132 455,-111"/><polygon style="fill:gray;stroke:gray" points="458.5 -111 455 -101 451.5 -111 458.5 -111"/><text x="467" y="-123" text-anchor="middle" style="font-family:Nimbus Roman No9 L;font-weight:regular;font-size:11.34pt;fill:gray">data</text></g><g id="edge32" class="edge"><title>node0x8dfc2e0-&gt;node0x8dfc308</title><path style="fill:none;stroke:#000" d="M423,-577C423,-558 423,-534 422,-515"/><polygon style="fill:#000;stroke:#000" points="425.5 -515 422 -505 418.5 -515 425.5 -515"/><text x="438" y="-545" text-anchor="middle" style="font-family:Nimbus Roman No9 L;font-weight:regular;font-size:11.34pt">cond</text></g><g id="edge34" class="edge"><title>list0x8df9328-&gt;node0x8dfbec8</title><path style="fill:none;stroke:gray" d="M568,-593C568,-577 568,-554 568,-533"/><polygon style="fill:gray;stroke:gray" points="571.5 -533 568 -523 564.5 -533 571.5 -533"/><text x="580" y="-545" text-anchor="middle" style="font-family:Nimbus Roman No9 L;font-weight:regular;font-size:11.34pt;fill:gray">data</text></g><g id="node41" class="node"><title>list0x8df9320</title><polygon style="fill:none;stroke:gray" points="655 -470.248 682 -455.149 709 -470.248 708.975 -494.678 655.025 -494.678 655 -470.248"/><text x="682" y="-472" text-anchor="middle" style="font-family:Nimbus Roman No9 L;font-weight:regular;font-size:11.34pt;fill:gray">N1</text></g><g id="edge40" class="edge"><title>list0x8df9328-&gt;list0x8df9320</title><path style="fill:none;stroke:gray" d="M580,-600C599,-576 636,-531 660,-503"/><polygon style="fill:gray;stroke:gray" points="663.049 -504.831 667 -495 657.781 -500.221 663.049 -504.831"/><text x="642" y="-545" text-anchor="middle" style="font-family:Nimbus Roman No9 L;font-weight:regular;font-size:11.34pt;fill:gray">next</text></g><g id="edge38" class="edge"><title>list0x8df9320-&gt;node0x8dfc0f8</title><path style="fill:none;stroke:gray" d="M685,-456C688,-438 691,-412 694,-387"/><polygon style="fill:gray;stroke:gray" points="697.488 -387.299 695 -377 690.522 -386.602 697.488 -387.299"/><text x="702" y="-399" text-anchor="middle" style="font-family:Nimbus Roman No9 L;font-weight:regular;font-size:11.34pt;fill:gray">data</text></g></g></svg>