<svg xmlns="http://www.w3.org/2000/svg" xmlns:svg="http://www.w3.org/2000/svg" id="svg2" width="210mm" height="297mm"><defs id="defs4"><marker id="Arrow2Lend" orient="auto" refX="0" refY="0" style="overflow:visible"><path id="path3420" d="M 8.7185878,4.0337352 L -2.2072895,0.016013256 L 8.7185884,-4.0017078 C 6.9730900,-1.6296469 6.9831476,1.6157441 8.7185878,4.0337352 z" transform="scale(1.1) rotate(180) translate(1,0)" style="font-size:12;fill-rule:evenodd;stroke-width:.625;stroke-linejoin:round"/></marker><filter id="filter5378" width="9.551" height="1.214" x="-4.275" y="-.107"><feGaussianBlur id="feGaussianBlur5380" stdDeviation="8.551"/></filter></defs><metadata id="metadata7"/><g id="layer1"><path style="opacity:.50488597999999996;fill:none;fill-opacity:1;fill-rule:evenodd;stroke:#85a0dd;stroke-width:4.8;stroke-linecap:butt;stroke-linejoin:miter;stroke-miterlimit:4;stroke-dasharray:none;stroke-opacity:1;filter:url(#filter5378);marker-end:none" id="path5232" d="M 311.63205,85.646196 L 311.63205,273.02949"/><path style="opacity:.98235294;fill:#ffe200;fill-opacity:1;fill-rule:nonzero;stroke:#000;stroke-width:.80337358;stroke-linecap:round;stroke-linejoin:round;stroke-miterlimit:4;stroke-dasharray:none;stroke-opacity:1" id="rect2383" d="M 226.06457,103.65075 L 225.8251,109.91475 L 69.721743,109.91475 C 69.247925,109.91475 68.866478,110.12018 68.866478,110.37533 L 68.866478,118.38957 C 68.866478,118.38957 69.247925,118.85016 69.721743,118.85016 L 225.75668,118.85016 L 225.89351,125.13258 L 243.40942,119.974 L 260.54898,114.46535 L 243.47782,108.90145 L 226.06457,103.65075 z"/><g id="g2405" transform="translate(242.4366,-20.960666)"><rect id="rect2407" width="53.538" height="25.759" x="42.426" y="81.101" rx=".781" ry=".781" style="opacity:.98235294;fill:#fff;fill-opacity:1;fill-rule:nonzero;stroke:#000;stroke-width:1;stroke-linecap:round;stroke-linejoin:round;stroke-miterlimit:4;stroke-dasharray:none;stroke-opacity:1"/><text id="text2409" x="55.053" y="92.212" xml:space="preserve" style="font-size:9px;font-style:normal;font-weight:400;fill:#000;fill-opacity:1;stroke:none;stroke-width:1px;stroke-linecap:butt;stroke-linejoin:miter;stroke-opacity:1;font-family:Bitstream Vera Sans"><tspan id="tspan2411" x="55.053" y="92.212">Worker</tspan><tspan id="tspan2413" x="55.053" y="103.462">thread</tspan></text></g><g id="g3320"><rect id="rect2415" width="33.515" height="24.93" x="96.73" y="127.982" rx=".781" ry=".781" style="opacity:.98235293999999995;fill:none;fill-opacity:1;fill-rule:nonzero;stroke:#000;stroke-width:.81858264999999997;stroke-linecap:round;stroke-linejoin:round;stroke-miterlimit:4;stroke-dasharray:none;stroke-opacity:1"/><text id="text2417" x="108.122" y="135.081" xml:space="preserve" style="font-size:6.3742671px;font-style:normal;font-weight:400;fill:#000;fill-opacity:1;stroke:none;stroke-width:1px;stroke-linecap:butt;stroke-linejoin:miter;stroke-opacity:1;font-family:Bitstream Vera Sans"><tspan id="tspan2419" x="108.122" y="135.081">Job</tspan></text><path id="path2421" d="M 94.616735,138.78983 L 94.691583,141.71095 L 135.35732,141.71095 C 135.50543,141.71095 135.62465,141.80675 135.62465,141.92574 L 135.62465,145.66306 C 135.62465,145.78205 135.50543,145.87784 135.35732,145.87784 L 94.712979,145.87784 L 94.670208,148.80755 L 89.19535,146.40193 L 83.838125,143.83305 L 89.173967,141.23842 L 94.616735,138.78983 z" style="opacity:.98235293999999995;fill:#faa;fill-opacity:1;fill-rule:nonzero;stroke:#000;stroke-width:.30671608;stroke-linecap:round;stroke-linejoin:round;stroke-miterlimit:4;stroke-dasharray:none;stroke-opacity:1"/></g><g id="g3326"><rect id="rect2449" width="33.515" height="24.93" x="157.209" y="127.729" rx=".781" ry=".781" style="opacity:.98235293999999995;fill:none;fill-opacity:1;fill-rule:nonzero;stroke:#000;stroke-width:.81858264999999997;stroke-linecap:round;stroke-linejoin:round;stroke-miterlimit:4;stroke-dasharray:none;stroke-opacity:1"/><text id="text2451" x="168.601" y="134.829" xml:space="preserve" style="font-size:6.37426709999999996px;font-style:normal;font-weight:400;fill:#000;fill-opacity:1;stroke:none;stroke-width:1px;stroke-linecap:butt;stroke-linejoin:miter;stroke-opacity:1;font-family:Bitstream Vera Sans"><tspan id="tspan2453" x="168.601" y="134.829">Job</tspan></text><path id="path2455" d="M 155.09605,138.53728 L 155.1709,141.4584 L 195.83664,141.4584 C 195.98474,141.4584 196.10397,141.5542 196.10397,141.67319 L 196.10397,145.41051 C 196.10397,145.5295 195.98474,145.62529 195.83664,145.62529 L 155.19229,145.62529 L 155.14952,148.55501 L 149.67466,146.14938 L 144.31744,143.58051 L 149.65328,140.98587 L 155.09605,138.53728 z" style="opacity:.98235293999999995;fill:#afe9af;fill-opacity:1;fill-rule:nonzero;stroke:#000;stroke-width:.30671608;stroke-linecap:round;stroke-linejoin:round;stroke-miterlimit:4;stroke-dasharray:none;stroke-opacity:1"/></g><g id="g3309" transform="translate(-43.436559,99.500024)"><g id="g3244"><g id="g3236"><g id="g2427" transform="translate(-25.001274,-35.860415)"><rect style="opacity:.98235294;fill:#faa;fill-opacity:1;fill-rule:nonzero;stroke:#000;stroke-width:1;stroke-linecap:round;stroke-linejoin:round;stroke-miterlimit:4;stroke-dasharray:none;stroke-opacity:1" id="rect2391" width="53.538" height="25.759" x="49.497" y="63.928" rx=".781" ry=".781"/><text style="font-size:9px;font-style:normal;font-weight:400;fill:#2b0000;fill-opacity:1;stroke:none;stroke-width:1px;stroke-linecap:butt;stroke-linejoin:miter;stroke-opacity:1;font-family:Bitstream Vera Sans" id="text2393" x="62.629" y="74.029" xml:space="preserve"><tspan id="tspan2395" x="62.629" y="74.029">User</tspan><tspan id="tspan2397" x="62.629" y="85.279">thread</tspan></text></g><rect id="rect2457" width="91.372" height="85.816" x="5.579" y="21.525" rx=".781" ry=".781" style="opacity:.98235294;fill:none;fill-opacity:1;fill-rule:nonzero;stroke:#000;stroke-width:1.04671741;stroke-linecap:round;stroke-linejoin:round;stroke-miterlimit:4;stroke-dasharray:none;stroke-opacity:1"/></g><path style="opacity:.98235294;fill:#faa;fill-opacity:1;fill-rule:nonzero;stroke:#000;stroke-width:.30671608;stroke-linecap:round;stroke-linejoin:round;stroke-miterlimit:4;stroke-dasharray:none;stroke-opacity:1" id="path3234" d="M 48.019881,93.769315 L 48.094729,96.690435 L 88.760466,96.690435 C 88.908576,96.690435 89.027796,96.786235 89.027796,96.905225 L 89.027796,100.64255 C 89.027796,100.76154 88.908576,100.85733 88.760466,100.85733 L 48.116125,100.85733 L 48.073354,103.78704 L 42.598496,101.38142 L 37.241271,98.812535 L 42.577113,96.217905 L 48.019881,93.769315 z"/></g></g><g id="g3301" transform="translate(-43.436559,-135.86551)"><rect id="rect3260" width="53.538" height="25.759" x="25.254" y="172.014" rx=".781" ry=".781" style="opacity:.98235294;fill:#afe9af;fill-opacity:1;fill-rule:nonzero;stroke:#000;stroke-width:1;stroke-linecap:round;stroke-linejoin:round;stroke-miterlimit:4;stroke-dasharray:none;stroke-opacity:1"/><text id="text3262" x="38.386" y="182.116" xml:space="preserve" style="font-size:9px;font-style:normal;font-weight:400;fill:#000;fill-opacity:1;stroke:none;stroke-width:1px;stroke-linecap:butt;stroke-linejoin:miter;stroke-opacity:1;font-family:Bitstream Vera Sans"><tspan id="tspan3264" x="38.386" y="182.116">User</tspan><tspan id="tspan3266" x="38.386" y="193.366">thread</tspan></text><rect id="rect3268" width="91.372" height="85.816" x="6.337" y="165.472" rx=".781" ry=".781" style="opacity:.98235294;fill:none;fill-opacity:1;fill-rule:nonzero;stroke:#000;stroke-width:1.04671741;stroke-linecap:round;stroke-linejoin:round;stroke-miterlimit:4;stroke-dasharray:none;stroke-opacity:1"/><path id="path3270" d="M 48.777493,237.71606 L 48.852341,240.63718 L 89.518078,240.63718 C 89.666188,240.63718 89.785408,240.73298 89.785408,240.85197 L 89.785408,244.58929 C 89.785408,244.70828 89.666188,244.80407 89.518078,244.80407 L 48.873737,244.80407 L 48.830966,247.73378 L 43.356108,245.32816 L 37.998883,242.75928 L 43.334725,240.16465 L 48.777493,237.71606 z" style="opacity:.98235294;fill:#afe9af;fill-opacity:1;fill-rule:nonzero;stroke:#000;stroke-width:.30671608;stroke-linecap:round;stroke-linejoin:round;stroke-miterlimit:4;stroke-dasharray:none;stroke-opacity:1"/></g><rect style="opacity:.98235294;fill:none;fill-opacity:1;fill-rule:nonzero;stroke:#000;stroke-width:.96782947;stroke-linecap:round;stroke-linejoin:round;stroke-miterlimit:4;stroke-dasharray:none;stroke-opacity:1" id="rect3338" width="200.042" height="215.7" x="62.108" y="10.879" rx=".781" ry=".781"/><g id="g3350" transform="translate(199.88037,-18.435293)"><rect id="rect3352" width="33.515" height="24.93" x="96.73" y="127.982" rx=".781" ry=".781" style="opacity:.98235294;fill:none;fill-opacity:1;fill-rule:nonzero;stroke:#000;stroke-width:.81858265;stroke-linecap:round;stroke-linejoin:round;stroke-miterlimit:4;stroke-dasharray:none;stroke-opacity:1"/><text id="text3354" x="108.122" y="135.081" xml:space="preserve" style="font-size:6.3742671px;font-style:normal;font-weight:400;fill:#000;fill-opacity:1;stroke:none;stroke-width:1px;stroke-linecap:butt;stroke-linejoin:miter;stroke-opacity:1;font-family:Bitstream Vera Sans"><tspan id="tspan3356" x="108.122" y="135.081">Job</tspan></text><path id="path3358" d="M 94.616735,138.78983 L 94.691583,141.71095 L 135.35732,141.71095 C 135.50543,141.71095 135.62465,141.80675 135.62465,141.92574 L 135.62465,145.66306 C 135.62465,145.78205 135.50543,145.87784 135.35732,145.87784 L 94.712979,145.87784 L 94.670208,148.80755 L 89.19535,146.40193 L 83.838125,143.83305 L 89.173967,141.23842 L 94.616735,138.78983 z" style="opacity:.98235294;fill:#faa;fill-opacity:1;fill-rule:nonzero;stroke:#000;stroke-width:.30671608;stroke-linecap:round;stroke-linejoin:round;stroke-miterlimit:4;stroke-dasharray:none;stroke-opacity:1"/></g><text style="font-size:8px;font-style:normal;font-weight:400;fill:#000;fill-opacity:1;stroke:none;stroke-width:1px;stroke-linecap:butt;stroke-linejoin:miter;stroke-opacity:1;font-family:Bitstream Vera Sans" id="text3360" x="75.761" y="160.903" xml:space="preserve"><tspan id="tspan3362" x="75.761" y="160.903">Jobs are pushed into the Queue</tspan><tspan id="tspan3364" x="75.761" y="170.903">when executing a function</tspan><tspan id="tspan3366" x="75.761" y="180.903">is requested</tspan></text><text style="font-size:9px;font-style:normal;font-weight:400;fill:#000;fill-opacity:1;stroke:none;stroke-width:1px;stroke-linecap:butt;stroke-linejoin:miter;stroke-opacity:1;font-family:Bitstream Vera Sans" id="text3368" x="115.662" y="23.017" xml:space="preserve"><tspan id="tspan3370" x="115.662" y="23.017">GdaThreadWrapper</tspan></text><text style="font-size:8px;font-style:normal;font-weight:400;fill:#000;fill-opacity:1;stroke:none;stroke-width:1px;stroke-linecap:butt;stroke-linejoin:miter;stroke-opacity:1;font-family:Bitstream Vera Sans" id="text3372" x="302.541" y="163.933" xml:space="preserve"><tspan id="tspan3374" x="302.541" y="163.933">Jobs are poped</tspan><tspan id="tspan3376" x="302.541" y="173.933">from Queue, then their</tspan><tspan id="tspan3378" x="302.541" y="183.933">function is executed</tspan><tspan id="tspan3380" x="302.541" y="193.933">and they are pushed back</tspan><tspan id="tspan3382" x="302.541" y="203.933">to the job&apos;s reply queue</tspan></text><g id="g3384" transform="translate(121.59355,-0.7576231)" style="opacity:.39413681"><rect id="rect3386" width="33.515" height="24.93" x="96.73" y="127.982" rx=".781" ry=".781" style="opacity:.98235293999999995;fill:none;fill-opacity:1;fill-rule:nonzero;stroke:#000;stroke-width:.81858264999999986;stroke-linecap:round;stroke-linejoin:round;stroke-miterlimit:4;stroke-dasharray:none;stroke-opacity:1"/><text id="text3388" x="108.122" y="135.081" xml:space="preserve" style="font-size:6.37426709999999996px;font-style:normal;font-weight:400;fill:#000;fill-opacity:1;stroke:none;stroke-width:1px;stroke-linecap:butt;stroke-linejoin:miter;stroke-opacity:1;font-family:Bitstream Vera Sans"><tspan id="tspan3390" x="108.122" y="135.081">Job</tspan></text><path id="path3392" d="M 94.616735,138.78983 L 94.691583,141.71095 L 135.35732,141.71095 C 135.50543,141.71095 135.62465,141.80675 135.62465,141.92574 L 135.62465,145.66306 C 135.62465,145.78205 135.50543,145.87784 135.35732,145.87784 L 94.712979,145.87784 L 94.670208,148.80755 L 89.19535,146.40193 L 83.838125,143.83305 L 89.173967,141.23842 L 94.616735,138.78983 z" style="opacity:.98235293999999995;fill:#faa;fill-opacity:1;fill-rule:nonzero;stroke:#000;stroke-width:.30671608;stroke-linecap:round;stroke-linejoin:round;stroke-miterlimit:4;stroke-dasharray:none;stroke-opacity:1"/></g><path style="fill:none;fill-opacity:.75;fill-rule:evenodd;stroke:#000;stroke-width:1px;stroke-linecap:butt;stroke-linejoin:miter;marker-end:url(#Arrow2Lend);stroke-opacity:1" id="path3394" d="M 259.95281,138.87387 L 281.48489,127.85939"/><path style="fill:none;fill-opacity:.75;fill-rule:evenodd;stroke:#000;stroke-width:1px;stroke-linecap:butt;stroke-linejoin:miter;stroke-opacity:1;marker-end:url(#Arrow2Lend)" id="path4691" d="M 289.91378,233.12847 C 289.91378,233.12847 241.71304,252.83728 160.10918,252.32137 C 92.818992,251.89595 48.992398,198.78328 48.992398,198.78328"/><text style="font-size:8px;font-style:normal;font-weight:400;fill:#000;fill-opacity:1;stroke:none;stroke-width:1px;stroke-linecap:butt;stroke-linejoin:miter;stroke-opacity:1;font-family:Bitstream Vera Sans" id="text5218" x="-22.223" y="-18.4" xml:space="preserve"><tspan id="tspan5222" x="-22.223" y="-18.4">Arrow are GASyncQueue objects, here 3 are created:</tspan><tspan id="tspan5226" x="-22.223" y="-8.4">* one for the communication to the worker thread (in yellow)</tspan><tspan id="tspan5228" x="-22.223" y="1.6">* one for each user thread using the GdaThreadWrapper object</tspan><tspan id="tspan5230" x="-22.223" y="11.6"> (in red and green)</tspan></text><g id="g6420" transform="translate(197.86006,81.064733)" style="opacity:.39413686"><rect id="rect6422" width="33.515" height="24.93" x="96.73" y="127.982" rx=".781" ry=".781" style="opacity:.98235294;fill:none;fill-opacity:1;fill-rule:nonzero;stroke:#000;stroke-width:.81858265;stroke-linecap:round;stroke-linejoin:round;stroke-miterlimit:4;stroke-dasharray:none;stroke-opacity:1"/><text id="text6424" x="108.122" y="135.081" xml:space="preserve" style="font-size:6.3742671px;font-style:normal;font-weight:400;fill:#000;fill-opacity:1;stroke:none;stroke-width:1px;stroke-linecap:butt;stroke-linejoin:miter;stroke-opacity:1;font-family:Bitstream Vera Sans"><tspan id="tspan6426" x="108.122" y="135.081">Job</tspan></text><path id="path6428" d="M 94.616735,138.78983 L 94.691583,141.71095 L 135.35732,141.71095 C 135.50543,141.71095 135.62465,141.80675 135.62465,141.92574 L 135.62465,145.66306 C 135.62465,145.78205 135.50543,145.87784 135.35732,145.87784 L 94.712979,145.87784 L 94.670208,148.80755 L 89.19535,146.40193 L 83.838125,143.83305 L 89.173967,141.23842 L 94.616735,138.78983 z" style="opacity:.98235294;fill:#faa;fill-opacity:1;fill-rule:nonzero;stroke:#000;stroke-width:.30671608;stroke-linecap:round;stroke-linejoin:round;stroke-miterlimit:4;stroke-dasharray:none;stroke-opacity:1"/></g><g id="g6430" transform="translate(-80.942042,83.085038)"><rect id="rect6432" width="33.515" height="24.93" x="96.73" y="127.982" rx=".781" ry=".781" style="opacity:.98235294;fill:none;fill-opacity:1;fill-rule:nonzero;stroke:#000;stroke-width:.81858265;stroke-linecap:round;stroke-linejoin:round;stroke-miterlimit:4;stroke-dasharray:none;stroke-opacity:1"/><text id="text6434" x="108.122" y="135.081" xml:space="preserve" style="font-size:6.3742671px;font-style:normal;font-weight:400;fill:#000;fill-opacity:1;stroke:none;stroke-width:1px;stroke-linecap:butt;stroke-linejoin:miter;stroke-opacity:1;font-family:Bitstream Vera Sans"><tspan id="tspan6436" x="108.122" y="135.081">Job</tspan></text><path id="path6438" d="M 94.616735,138.78983 L 94.691583,141.71095 L 135.35732,141.71095 C 135.50543,141.71095 135.62465,141.80675 135.62465,141.92574 L 135.62465,145.66306 C 135.62465,145.78205 135.50543,145.87784 135.35732,145.87784 L 94.712979,145.87784 L 94.670208,148.80755 L 89.19535,146.40193 L 83.838125,143.83305 L 89.173967,141.23842 L 94.616735,138.78983 z" style="opacity:.98235294;fill:#faa;fill-opacity:1;fill-rule:nonzero;stroke:#000;stroke-width:.30671608;stroke-linecap:round;stroke-linejoin:round;stroke-miterlimit:4;stroke-dasharray:none;stroke-opacity:1"/></g><g id="g6464" transform="translate(31.314729,219.70818)"><text id="text6440" x="107.625" y="-30.834" xml:space="preserve" style="font-size:13px;font-style:normal;font-weight:400;fill:#000;fill-opacity:1;stroke:none;stroke-width:1px;stroke-linecap:butt;stroke-linejoin:miter;stroke-opacity:1;font-family:Bitstream Vera Sans"><tspan id="tspan6442" x="107.625" y="-30.834">1</tspan></text><path id="path6444" d="M 122.73354,-35.572109 A 10.859139,10.606602 0 1 1 101.01526,-35.572109 A 10.859139,10.606602 0 1 1 122.73354,-35.572109 z" style="opacity:.50488598;fill:none;fill-opacity:1;fill-rule:nonzero;stroke:#85a0dd;stroke-width:4.80000019;stroke-linecap:round;stroke-linejoin:round;stroke-miterlimit:4;stroke-dasharray:none;stroke-opacity:1"/></g><g id="g6469" transform="translate(127.7843,142.93658)"><text id="text6446" x="149.293" y="-34.874" xml:space="preserve" style="font-size:13px;font-style:normal;font-weight:400;fill:#000;fill-opacity:1;stroke:none;stroke-width:1px;stroke-linecap:butt;stroke-linejoin:miter;stroke-opacity:1;font-family:Bitstream Vera Sans"><tspan id="tspan6448" x="149.293" y="-34.874">2</tspan></text><path id="path6450" d="M 122.73354,-35.572109 A 10.859139,10.606602 0 1 1 101.01526,-35.572109 A 10.859139,10.606602 0 1 1 122.73354,-35.572109 z" transform="translate(41.66879,-4.0406099)" style="opacity:.50488598;fill:none;fill-opacity:1;fill-rule:nonzero;stroke:#85a0dd;stroke-width:4.80000019;stroke-linecap:round;stroke-linejoin:round;stroke-miterlimit:4;stroke-dasharray:none;stroke-opacity:1"/></g><g id="g6474" transform="translate(89.398505,284.35794)"><text id="text6452" x="181.618" y="-23.257" xml:space="preserve" style="font-size:13px;font-style:normal;font-weight:400;fill:#000;fill-opacity:1;stroke:none;stroke-width:1px;stroke-linecap:butt;stroke-linejoin:miter;stroke-opacity:1;font-family:Bitstream Vera Sans"><tspan id="tspan6454" x="181.618" y="-23.257">3</tspan></text><path id="path6456" d="M 122.73354,-35.572109 A 10.859139,10.606602 0 1 1 101.01526,-35.572109 A 10.859139,10.606602 0 1 1 122.73354,-35.572109 z" transform="translate(73.993671,7.576144)" style="opacity:.50488598;fill:none;fill-opacity:1;fill-rule:nonzero;stroke:#85a0dd;stroke-width:4.80000019;stroke-linecap:round;stroke-linejoin:round;stroke-miterlimit:4;stroke-dasharray:none;stroke-opacity:1"/></g><g id="g6479" transform="translate(-235.36554,256.07367)"><text id="text6458" x="218.994" y="-27.298" xml:space="preserve" style="font-size:13px;font-style:normal;font-weight:400;fill:#000;fill-opacity:1;stroke:none;stroke-width:1px;stroke-linecap:butt;stroke-linejoin:miter;stroke-opacity:1;font-family:Bitstream Vera Sans"><tspan id="tspan6460" x="218.994" y="-27.298">4</tspan></text><path id="path6462" d="M 122.73354,-35.572109 A 10.859139,10.606602 0 1 1 101.01526,-35.572109 A 10.859139,10.606602 0 1 1 122.73354,-35.572109 z" transform="translate(111.36932,3.5355339)" style="opacity:.50488598;fill:none;fill-opacity:1;fill-rule:nonzero;stroke:#85a0dd;stroke-width:4.80000019;stroke-linecap:round;stroke-linejoin:round;stroke-miterlimit:4;stroke-dasharray:none;stroke-opacity:1"/></g><text style="font-size:8px;font-style:normal;font-weight:400;fill:#000;fill-opacity:1;stroke:none;stroke-width:1px;stroke-linecap:butt;stroke-linejoin:miter;stroke-opacity:1;font-family:Bitstream Vera Sans" id="text6484" x="-54.15" y="243.518" xml:space="preserve"><tspan id="tspan6490" x="-54.15" y="243.518">Completed jobs os signals </tspan><tspan id="tspan4377" x="-54.15" y="243.518">are waiting to be</tspan><tspan id="tspan6496" x="-54.15" y="253.518">analyzed by the user thread</tspan></text><g id="g3261" transform="translate(-208.5965,124.24876)"><rect id="rect2477" width="46.972" height="33.335" x="390.929" y="218.481" rx=".781" ry=".781" style="opacity:1;fill:none;fill-opacity:1;fill-rule:nonzero;stroke:#000;stroke-width:1;stroke-linecap:round;stroke-linejoin:round;stroke-miterlimit:4;stroke-dasharray:none;stroke-opacity:1"/><text id="text3255" x="401.536" y="231.108" xml:space="preserve" style="font-size:8px;font-style:normal;font-weight:400;fill:#000;fill-opacity:1;stroke:none;stroke-width:1px;stroke-linecap:butt;stroke-linejoin:miter;stroke-opacity:1;font-family:Bitstream Vera Sans"><tspan id="tspan3257" x="401.536" y="231.108">Some</tspan><tspan id="tspan3259" x="401.536" y="241.108">object</tspan></text></g><path style="fill:none;fill-opacity:.75;fill-rule:evenodd;stroke:#000;stroke-width:.55331099px;stroke-linecap:butt;stroke-linejoin:miter;marker-end:url(#Arrow2Lend);stroke-opacity:1" id="path3267" d="M 230.58237,358.61073 L 251.54218,346.59377 L 241.76094,356.93395 L 262.16183,347.99109"/><g id="g3819" transform="translate(-31.314728,64.649762)"><rect id="rect3786" width="33.515" height="24.93" x="355.199" y="248.948" rx=".781" ry=".781" style="opacity:.98235294;fill:none;fill-opacity:1;fill-rule:nonzero;stroke:#000;stroke-width:.81858265;stroke-linecap:round;stroke-linejoin:round;stroke-miterlimit:4;stroke-dasharray:none;stroke-opacity:1"/><text id="text3788" x="363.055" y="255.542" xml:space="preserve" style="font-size:6.3742671px;font-style:normal;font-weight:400;fill:#000;fill-opacity:1;stroke:none;stroke-width:1px;stroke-linecap:butt;stroke-linejoin:miter;stroke-opacity:1;font-family:Bitstream Vera Sans"><tspan id="tspan3790" x="363.055" y="255.542">Job</tspan><tspan id="tspan3798" x="363.055" y="263.51">as</tspan><tspan id="tspan3800" x="363.055" y="271.478">signal</tspan></text></g><g id="g3812" transform="translate(-67.175143,1.5152291)"><path id="path3792" d="M 333.38797,360.26577 L 333.46282,363.18689 L 374.12856,363.18689 C 374.27667,363.18689 374.39589,363.28269 374.39589,363.40168 L 374.39589,367.139 C 374.39589,367.25799 374.27667,367.35378 374.12856,367.35378 L 333.48422,367.35378 L 333.44145,370.28349 L 327.96659,367.87787 L 322.60936,365.30899 L 327.94521,362.71436 L 333.38797,360.26577 z" style="opacity:.98235294;fill:#faa;fill-opacity:1;fill-rule:nonzero;stroke:#000;stroke-width:.30671608;stroke-linecap:round;stroke-linejoin:round;stroke-miterlimit:4;stroke-dasharray:none;stroke-opacity:1"/><rect id="rect3804" width="38.052" height="58.256" x="329.981" y="320.168" rx=".781" ry=".781" style="opacity:1;fill:none;fill-opacity:1;fill-rule:nonzero;stroke:#000;stroke-width:1;stroke-linecap:round;stroke-linejoin:round;stroke-miterlimit:4;stroke-dasharray:none;stroke-opacity:1"/><text id="text3806" x="334.361" y="333.639" xml:space="preserve" style="font-size:8px;font-style:normal;font-weight:400;fill:#000;fill-opacity:1;stroke:none;stroke-width:1px;stroke-linecap:butt;stroke-linejoin:miter;stroke-opacity:1;font-family:Bitstream Vera Sans"><tspan id="tspan3808" x="334.361" y="333.639">signal</tspan><tspan id="tspan3810" x="334.361" y="343.639">handler</tspan></text></g><path style="fill:none;fill-opacity:.75;fill-rule:evenodd;stroke:#000;stroke-width:1px;stroke-linecap:butt;stroke-linejoin:miter;stroke-opacity:1;marker-end:url(#Arrow2Lend)" id="path3826" d="M 305.06607,358.38739 C 305.06607,358.38739 331.45452,370.15749 339.41126,363.43815 C 344.622,359.03776 339.91633,340.70972 339.91633,340.70972"/><path style="fill:none;fill-opacity:.75;fill-rule:evenodd;stroke:#000;stroke-width:1px;stroke-linecap:butt;stroke-linejoin:miter;stroke-opacity:1" id="path4347" d="M 318.70313,313.4356 C 318.70313,313.4356 190.80669,297.55357 141.92643,274.54473 C 109.81338,259.42853 48.487322,198.78329 48.487322,198.78329"/><text style="font-size:8px;font-style:normal;font-weight:400;fill:#000;fill-opacity:1;stroke:none;stroke-width:1px;stroke-linecap:butt;stroke-linejoin:miter;stroke-opacity:1;font-family:Bitstream Vera Sans" id="text4349" x="99.393" y="314.229" xml:space="preserve"><tspan id="tspan4355" x="99.393" y="314.229">When a signal is connected , to be caught</tspan><tspan id="tspan4361" x="99.393" y="324.229">by the worker thread, it is handled by</tspan><tspan id="tspan4363" x="99.393" y="334.229">a signal handler which creates</tspan><tspan id="tspan4365" x="99.393" y="344.229">a new Job as signal</tspan><tspan id="tspan4367" x="99.393" y="354.229">and pushed to</tspan><tspan id="tspan4369" x="99.393" y="364.229">the queue</tspan><tspan id="tspan4371" x="99.393" y="374.229">specified when</tspan><tspan id="tspan4373" x="99.393" y="384.229">the signal was</tspan><tspan id="tspan4375" x="99.393" y="394.229">connected</tspan></text></g></svg>