<svg xmlns="http://www.w3.org/2000/svg" width="512" height="512"><defs><filter id="filter1" width="1000" height="520" x="0" y="0" filterUnits="userSpaceOnUse"><feGaussianBlur in="SourceAlpha" result="blur" stdDeviation="4"/><feOffset dx="4" dy="4" in="blur" result="offsetBlur"/><feSpecularLighting in="blur" lighting-color="#bbb" result="specOut" specularConstant=".75" specularExponent="20" surfaceScale="5"><fePointLight x="100" y="500" z="500"/></feSpecularLighting><feComposite in="specOut" in2="SourceAlpha" operator="in" result="specOut"/><feComposite in="SourceGraphic" in2="specOut" k1="0" k2="1" k3="1" k4="0" operator="arithmetic" result="litPaint"/><feMerge><feMergeNode in="offsetBlur"/><feMergeNode in="litPaint"/></feMerge></filter></defs><svg xmlns="http://www.w3.org/2000/svg" transform="translate(10)"><g filter="url(#filter1)" transform="translate(0,200)"><ellipse cx="203" cy="203" rx="200" ry="100" style="fill:gray;stroke:#fff;stroke-width:3"/><rect width="400" height="100" x="3" y="103" d="M3,100 L3,203 403,203 403,103" style="fill:gray;stroke:whithe;stroke-width:3"/><ellipse cx="203" cy="103" rx="200" ry="100" style="fill:gray;stroke:#fff;stroke-width:3"/></g><g filter="url(#filter1)" transform="translate(0,100)"><ellipse cx="203" cy="203" rx="200" ry="100" style="fill:gray;stroke:#fff;stroke-width:3"/><rect width="400" height="100" x="3" y="103" d="M3,100 L3,203 403,203 403,103" style="fill:gray;stroke:whithe;stroke-width:3"/><ellipse cx="203" cy="103" rx="200" ry="100" style="fill:gray;stroke:#fff;stroke-width:3"/></g><g xmlns="http://www.w3.org/2000/svg" filter="url(#filter1)"><ellipse cx="203" cy="203" rx="200" ry="100" style="fill:gray;stroke:#fff;stroke-width:3"/><rect width="400" height="100" x="3" y="103" d="M3,100 L3,203 403,203 403,103" style="fill:gray;stroke:whithe;stroke-width:3"/><ellipse cx="203" cy="103" rx="200" ry="100" style="fill:gray;stroke:#fff;stroke-width:3"/></g></svg><text x="50" y="200" filter="url(#filter1)" style="font-size:200;font-family:Times;fill:green;stroke:green;stroke-width:3">SQL</text></svg>